<svg width="23" height="22" viewBox="0 0 23 22" fill="none" xmlns="http://www.w3.org/2000/svg">
<path fill-rule="evenodd" clip-rule="evenodd" d="M2.45569 0.0356027C2.54679 0.0646934 2.50568 0.0755122 2.28698 0.079936C2.11585 0.083398 1.91412 0.123692 1.79289 0.178556C1.68023 0.229573 1.58802 0.262125 1.58802 0.250874C1.58802 0.21183 1.87507 0.0826286 2.05646 0.0400263C2.2797 -0.0124331 2.30447 -0.0127215 2.45569 0.0356027ZM12.8155 0.0663282C12.8266 0.0758969 12.447 0.0798878 11.972 0.0751756C11.3564 0.0691651 11.2052 0.0579617 11.4457 0.0362278C11.766 0.00728135 12.7728 0.0293999 12.8155 0.0663282ZM3.13464 0.328529C3.58183 0.598423 4.38958 1.15773 5.1283 1.70897C5.56035 2.03137 5.61738 2.06055 5.70675 2.00507C5.79646 1.94934 5.79959 1.95107 5.73972 2.02334C5.65556 2.12494 5.59718 2.12398 5.47224 2.01906C5.37212 1.93501 5.37212 1.93501 5.46385 2.0431C5.51437 2.10258 5.57395 2.15129 5.59631 2.15129C5.61863 2.15129 5.75086 2.07171 5.89012 1.97448C6.28819 1.69646 6.32492 1.63578 5.95047 1.87466L5.80586 1.96689L5.9442 1.84831C6.02032 1.78311 6.17216 1.68209 6.28163 1.62386L6.48071 1.51803L6.3602 1.62155C6.29252 1.67968 6.39823 1.63924 6.60122 1.52937C6.80006 1.42176 6.95764 1.313 6.95137 1.28766C6.93069 1.20413 8.53617 0.511055 8.73212 0.518941C8.76644 0.520335 8.67519 0.564957 8.52938 0.618186C7.78843 0.888465 6.88818 1.28511 7.01447 1.28559C7.04291 1.28568 7.2056 1.21832 7.376 1.1359C7.5464 1.05349 7.74004 0.964581 7.80632 0.938376C8.57396 0.634678 9.42211 0.393634 10.2406 0.246546C10.9957 0.110902 13.0217 0.121528 13.8077 0.265299C16.1278 0.689638 17.9593 1.63102 19.6645 3.27578C20.2686 3.85855 20.279 3.86629 19.8091 3.38445C19.255 2.81619 18.7628 2.39113 18.2425 2.03132C17.9019 1.7959 17.7423 1.66872 17.8809 1.74335C18.1113 1.86731 18.7489 2.34771 19.2254 2.75623C19.8493 3.29126 20.8778 4.42262 20.5746 4.24038C20.5181 4.20649 20.5181 4.21274 20.5742 4.28178C20.6513 4.37665 20.6984 4.39036 20.6472 4.30304C20.6278 4.27 20.6591 4.28414 20.7167 4.33453C20.8409 4.44325 20.859 4.5486 20.737 4.45316C20.6609 4.39363 20.659 4.39526 20.7175 4.46979C20.7532 4.51523 20.8047 4.54769 20.832 4.54192C20.8593 4.53615 20.8926 4.56149 20.906 4.59822C20.9229 4.64467 20.91 4.65285 20.8638 4.62505C20.8073 4.59116 20.8073 4.59741 20.8634 4.66645C20.9405 4.76123 20.9882 4.77532 20.9355 4.68771C20.9109 4.64688 20.9254 4.64876 20.9808 4.69357C21.075 4.76974 21.0919 4.86663 21.0021 4.81508C20.9671 4.79498 20.9587 4.79883 20.982 4.82427C21.0041 4.84831 21.0457 4.86802 21.0744 4.86802C21.1032 4.86802 21.1367 4.89807 21.149 4.93481C21.1642 4.98049 21.1503 4.98948 21.1048 4.96318C21.0655 4.94048 21.0547 4.94265 21.0784 4.96852C21.1006 4.99256 21.1421 5.01227 21.1708 5.01227C21.1996 5.01227 21.2331 5.04233 21.2454 5.07906C21.2606 5.12474 21.2467 5.13373 21.2012 5.10743C21.1619 5.08474 21.1511 5.0869 21.1748 5.11277C21.197 5.13681 21.2385 5.15652 21.2672 5.15652C21.296 5.15652 21.3295 5.18658 21.3418 5.22331C21.3567 5.26784 21.3435 5.27741 21.3022 5.25197C21.2613 5.22673 21.2522 5.23288 21.2752 5.2701C21.2944 5.30106 21.3293 5.31453 21.3529 5.30001C21.411 5.26414 21.5569 5.55432 21.5148 5.62217C21.4947 5.65462 21.503 5.66294 21.5354 5.64289C21.5692 5.62207 21.6572 5.74122 21.7697 5.96005C22.0646 6.5336 22.2227 6.92783 22.1706 6.95995C22.1413 6.97803 22.1508 7.0254 22.1953 7.08271C22.2667 7.1747 22.2673 7.17465 22.2422 7.07988C22.2281 7.02698 22.2572 7.07026 22.3067 7.17604C22.4132 7.40372 22.4905 7.69703 22.4143 7.58475C22.3556 7.4982 22.3542 7.57067 22.4121 7.70496C22.44 7.76973 22.4548 7.77757 22.4576 7.72901C22.4613 7.66491 22.4669 7.66491 22.5085 7.72901C22.5677 7.82041 22.5711 7.98395 22.513 7.94817C22.489 7.93331 22.4811 7.96635 22.4956 8.0215C22.5136 8.09035 22.5332 8.10343 22.5581 8.06328C22.5998 7.99592 22.6023 8.00308 22.7432 8.59451C22.8448 9.02126 22.9296 9.66409 22.8478 9.3879C22.8198 9.29356 22.8163 9.36842 22.8375 9.60427C22.8941 10.2323 22.8734 12.2444 22.8064 12.6335C22.699 13.2564 22.695 13.2959 22.7495 13.1865C22.7859 13.1134 22.7908 13.1381 22.7701 13.2892C22.7411 13.5011 22.5685 14.0877 22.5611 13.9996C22.5587 13.9707 22.589 13.8409 22.6285 13.7111C22.668 13.5812 22.6992 13.4317 22.6978 13.3788C22.6965 13.326 22.6459 13.4682 22.5853 13.695C22.5246 13.9219 22.4403 14.2092 22.3979 14.3335C22.3554 14.4578 22.3382 14.5487 22.3597 14.5354C22.3813 14.5221 22.4265 14.4127 22.4603 14.2923C22.4941 14.1718 22.5324 14.0839 22.5453 14.0967C22.6484 14.1996 21.593 16.5674 21.4565 16.5392C21.4214 16.5319 21.406 16.5475 21.4223 16.5738C21.4617 16.6373 21.3114 16.9236 21.2565 16.8897C21.2329 16.8752 21.198 16.8887 21.1788 16.9196C21.157 16.9548 21.1648 16.9631 21.1995 16.9416C21.2864 16.8881 21.2648 16.9896 21.1736 17.0634C21.1042 17.1196 21.0981 17.1194 21.1329 17.0618C21.1608 17.0157 21.1558 17.0053 21.1172 17.0291C21.0862 17.0483 21.0729 17.0834 21.0877 17.1073C21.1228 17.164 20.9674 17.4004 20.9158 17.3686C20.8941 17.3552 20.8605 17.3695 20.8414 17.4005C20.8196 17.4356 20.8273 17.4439 20.8621 17.4225C20.949 17.3689 20.9274 17.4704 20.8362 17.5442C20.7808 17.5891 20.7663 17.5909 20.7908 17.5501C20.8436 17.4625 20.7959 17.4766 20.7188 17.5714C20.6739 17.6267 20.672 17.6411 20.7129 17.6166C20.8149 17.5555 20.7795 17.6621 20.6655 17.759C20.5779 17.8336 20.57 17.835 20.6232 17.7665C20.7164 17.6465 20.6612 17.6622 20.5517 17.7868C20.5011 17.8442 20.487 17.8754 20.5201 17.8561C20.8589 17.6585 19.5981 18.9882 18.9173 19.5465C18.4035 19.9679 17.1579 20.7819 17.1579 20.6963C17.1579 20.6828 17.2935 20.5959 17.4591 20.5031C17.8391 20.2902 18.7039 19.6936 18.798 19.5794C18.8371 19.5319 18.739 19.5914 18.5799 19.7114C16.6972 21.1326 14.3698 21.9137 12.0175 21.9137C9.13024 21.9137 6.5668 20.8797 4.33492 18.8148L3.8777 18.3918L4.32884 18.834C5.47388 19.9565 6.87381 20.8277 8.39142 21.3621C8.71915 21.4776 8.96229 21.5731 8.93173 21.5746C8.79204 21.581 7.81499 21.2034 7.20126 20.9057C6.42711 20.5303 5.5819 19.9825 4.90632 19.4183C4.44954 19.0369 3.41977 17.9887 3.41977 17.9053C3.41977 17.882 3.4523 17.8898 3.49207 17.9228C3.60545 18.0166 3.57662 17.9484 3.45968 17.8461C3.39427 17.7888 3.3706 17.7815 3.39663 17.8266C3.43254 17.8888 3.42704 17.8896 3.35672 17.8328C3.27005 17.7626 3.24194 17.6562 3.32336 17.7064C3.40183 17.7548 3.37831 17.6996 3.29 17.6281C3.21967 17.5712 3.21432 17.572 3.25105 17.6343C3.28817 17.6971 3.28282 17.6976 3.20989 17.6386C3.16385 17.6013 3.13705 17.5425 3.15035 17.5079C3.16366 17.4733 3.15045 17.4301 3.121 17.412C3.08542 17.39 3.08113 17.4016 3.10822 17.4465C3.14298 17.5041 3.13695 17.5042 3.06749 17.4481C2.97335 17.3719 2.95638 17.275 3.04619 17.3266C3.08118 17.3467 3.08962 17.3428 3.06629 17.3174C3.04416 17.2933 3.00078 17.2736 2.96988 17.2735C2.93893 17.2734 2.91334 17.2371 2.913 17.1928C2.91266 17.1484 2.89295 17.0944 2.86913 17.0727C2.84392 17.0497 2.84224 17.0614 2.86513 17.1008C2.89242 17.1476 2.88639 17.1572 2.84547 17.1319C2.81307 17.112 2.79861 17.0642 2.81336 17.0259C2.82816 16.9875 2.82025 16.9684 2.79586 16.9834C2.77147 16.9985 2.71748 16.9623 2.67588 16.9031C2.587 16.7764 2.57716 16.7007 2.65598 16.7493C2.69073 16.7707 2.69849 16.7625 2.6767 16.7273C2.65752 16.6963 2.62257 16.6829 2.599 16.6974C2.54087 16.7333 2.395 16.4431 2.43708 16.3752C2.45718 16.3428 2.44894 16.3345 2.41655 16.3545C2.38314 16.375 2.30279 16.2725 2.20575 16.0854C1.91879 15.5318 1.63854 14.8432 1.87724 15.2782C2.00927 15.5188 1.99491 15.432 1.85237 15.128C1.7857 14.9858 1.74473 14.9235 1.76141 14.9897C1.7803 15.0647 1.77486 15.0918 1.74695 15.0618C1.67763 14.9873 1.42745 14.2202 1.46144 14.1863C1.47802 14.1697 1.49161 14.191 1.49161 14.2335C1.49161 14.276 1.51128 14.3229 1.53533 14.3377C1.55939 14.3526 1.55558 14.2884 1.52685 14.1951C1.49817 14.1019 1.46047 14.0485 1.44307 14.0766C1.42572 14.1046 1.38715 14.0457 1.35741 13.9456C1.26852 13.6465 1.1056 12.8813 1.11138 12.7904C1.11437 12.7438 1.14445 12.8247 1.17829 12.9701C1.25922 13.3182 1.26018 13.1384 1.17983 12.6816C1.13254 12.4129 1.11365 12.3639 1.10564 12.4893L1.09489 12.6576L1.05503 12.4653C1.0331 12.3595 1.01743 12.1647 1.02023 12.0325L1.02529 11.7921L1.05358 12.0565C1.06915 12.202 1.07537 9.80906 1.06742 6.73891C1.05513 1.99141 1.06327 1.12691 1.12203 0.95684C1.19882 0.734548 1.18933 0.701467 1.09562 0.865048C1.04659 0.950637 1.02842 2.09219 1.00856 6.33458L0.983398 11.6959L0.984459 6.33458C0.985423 1.27188 0.990292 0.964437 1.0719 0.815377C1.11943 0.728586 1.17756 0.669443 1.20109 0.683964C1.22466 0.698486 1.25961 0.685022 1.27879 0.654056C1.30058 0.618907 1.29282 0.610636 1.25806 0.632082C1.13789 0.706131 1.21164 0.57467 1.37833 0.417676C1.47513 0.326558 1.5389 0.279051 1.5201 0.312084C1.47223 0.396231 1.50776 0.387816 1.71508 0.26578C1.83709 0.193991 2.01424 0.149465 2.26013 0.128789C2.46046 0.11196 2.64793 0.094938 2.6767 0.090947C2.70548 0.0869561 2.91155 0.193846 3.13464 0.328529ZM11.032 0.101237C11.0209 0.110902 10.8383 0.130376 10.6262 0.144512C10.3966 0.159851 10.3089 0.155283 10.4093 0.133309C10.5838 0.0950823 11.0675 0.0701749 11.032 0.101237ZM13.5185 0.130568C13.657 0.160236 13.6026 0.164371 13.3257 0.14533C13.1136 0.13076 12.931 0.110902 12.9199 0.101237C12.8816 0.0676745 13.3268 0.0894565 13.5185 0.130568ZM2.77388 0.223418C2.88258 0.272704 3.19171 0.45547 3.46079 0.629678C3.72986 0.803837 3.95001 0.935539 3.95001 0.922316C3.95001 0.893033 3.07111 0.321797 2.85578 0.21106C2.77089 0.167448 2.67328 0.132251 2.63886 0.132828C2.6044 0.133405 2.66513 0.17418 2.77388 0.223418ZM10.0237 0.234573C9.90439 0.259 9.5927 0.333482 9.3311 0.400029C9.06945 0.466626 8.84545 0.511199 8.83335 0.49913C8.80814 0.473934 8.83947 0.464558 9.39704 0.330548C9.9552 0.196395 9.98263 0.191057 10.1201 0.190577C10.1864 0.190336 10.143 0.210147 10.0237 0.234573ZM14.3274 0.270348C14.5602 0.319153 14.7663 0.37594 14.7853 0.396471C14.8044 0.417003 14.7549 0.417628 14.6754 0.397866C14.5958 0.378103 14.3464 0.323047 14.121 0.275493C13.8957 0.227986 13.7547 0.187403 13.8077 0.185287C13.8607 0.18322 14.0946 0.221495 14.3274 0.270348ZM1.36652 0.480378L1.27469 0.588566L1.38315 0.496967C1.48506 0.410897 1.51354 0.372189 1.47498 0.372189C1.46582 0.372189 1.41704 0.420898 1.36652 0.480378ZM15.0851 0.470569C15.1379 0.506199 15.1184 0.51067 15.0128 0.487109C14.8355 0.447536 14.7971 0.420032 14.9204 0.420994C14.9712 0.421427 15.0453 0.44369 15.0851 0.470569ZM15.3984 0.564524C15.4592 0.590586 15.4681 0.605828 15.4225 0.605828C15.3828 0.605828 15.3068 0.587268 15.2538 0.564524C15.193 0.538463 15.1842 0.52322 15.2297 0.52322C15.2695 0.52322 15.3454 0.541781 15.3984 0.564524ZM16.0503 0.805376C16.5568 1.0067 17.2061 1.31776 17.2061 1.35911C17.2061 1.37233 17.0552 1.30737 16.8707 1.21471C16.6863 1.12206 16.3121 0.957609 16.0392 0.849228C15.7663 0.740847 15.534 0.643285 15.5229 0.63237C15.4749 0.585056 15.5951 0.624485 16.0503 0.805376ZM3.99821 0.965447C3.99821 0.977948 4.20973 1.13985 4.4682 1.32516C4.72667 1.51048 5.03035 1.7308 5.14305 1.8147C5.25575 1.89861 5.34792 1.95636 5.34792 1.94304C5.34792 1.92972 5.11471 1.7482 4.82973 1.53966C4.15637 1.04695 3.99821 0.937702 3.99821 0.965447ZM6.89044 1.30886C6.89044 1.32151 6.80368 1.37608 6.69763 1.43003C6.59158 1.48398 6.50481 1.5174 6.50481 1.50427C6.50481 1.49115 6.58618 1.43758 6.68558 1.38522C6.89011 1.27751 6.89044 1.27741 6.89044 1.30886ZM17.7122 1.64569C17.7652 1.68906 17.7002 1.66559 17.5676 1.59342C17.435 1.52129 17.3049 1.44181 17.2784 1.41681C17.2028 1.3456 17.6043 1.55736 17.7122 1.64569ZM20.3875 4.0506C20.4498 4.11671 20.5116 4.17081 20.5249 4.17081C20.5381 4.17081 20.498 4.11671 20.4357 4.0506C20.3734 3.98448 20.3117 3.93039 20.2984 3.93039C20.2851 3.93039 20.3252 3.98448 20.3875 4.0506ZM21.7162 6.06016C21.7343 6.10757 21.7613 6.13426 21.7761 6.11945C21.791 6.10469 21.7762 6.06588 21.7432 6.03324C21.6956 5.98611 21.6901 5.99164 21.7162 6.06016ZM16.285 6.11575C15.7832 6.2538 15.6499 6.37165 13.0818 8.94553L10.578 11.4551L13.1087 8.94755C15.085 6.98943 15.6945 6.41271 15.8909 6.3152C16.0292 6.24654 16.1702 6.19033 16.2042 6.19037C16.2383 6.19037 16.1251 6.25649 15.9528 6.33727C15.6682 6.47065 15.4092 6.71285 13.1328 8.97365C11.2453 10.8482 10.5992 11.4622 10.5167 11.4593C10.4415 11.4567 10.1208 11.1703 9.49239 10.5446C8.98924 10.0437 8.57758 9.62197 8.57758 9.6075C8.57758 9.59302 9.00597 10.0029 9.5296 10.5183L10.4816 11.4555L9.54166 10.503C8.47384 9.42093 8.27052 9.25494 7.81692 9.09526C7.06234 8.8296 6.1293 9.04847 5.61188 9.6125C5.53298 9.69852 5.50641 9.74001 5.55279 9.70472C5.67445 9.61221 5.65686 9.71636 5.53244 9.82522C5.47489 9.87561 5.44568 9.88643 5.46761 9.84926C5.4947 9.80334 5.48935 9.79286 5.45098 9.81656C5.41994 9.8357 5.40562 9.86917 5.41912 9.891C5.43261 9.91278 5.38523 10.0574 5.31384 10.2122C5.21015 10.4371 5.17776 10.5956 5.15313 10.9987L5.12228 11.5036L5.11461 11.0945C5.11037 10.8696 5.12821 10.6114 5.15429 10.5208C5.18032 10.4301 5.19261 10.3469 5.18157 10.3359C5.13211 10.2866 5.04901 10.7655 5.05407 11.0708C5.05913 11.3786 5.14088 11.8282 5.15096 11.6037C5.15636 11.4835 5.18191 11.5166 5.22211 11.6959C5.24573 11.8013 5.24125 11.8207 5.20553 11.768C5.17858 11.7284 5.1566 11.7176 5.1566 11.744C5.1566 11.8083 5.24963 11.9497 5.25151 11.8883C5.25339 11.8268 5.34643 11.9682 5.34643 12.0325C5.34643 12.0589 5.32343 12.0481 5.29533 12.0085C5.24987 11.9444 5.24636 11.9444 5.2639 12.0085C5.27475 12.0481 5.30974 12.0806 5.34165 12.0806C5.39988 12.0806 5.49041 12.191 5.49181 12.2637C5.49219 12.2851 5.46544 12.2878 5.43228 12.2696C5.39916 12.2514 6.24924 13.1144 7.32139 14.1874C8.58876 15.4558 9.34889 16.1807 9.49417 16.2596C9.78022 16.4149 10.2181 16.5285 10.5279 16.5278C10.9438 16.5268 11.6123 16.2998 11.7672 16.1071C11.8065 16.0582 11.7702 16.07 11.6737 16.1375C11.3593 16.3574 10.9996 16.454 10.5057 16.4512C10.2539 16.4498 9.99357 16.4236 9.92729 16.3931C9.82201 16.3446 9.83117 16.342 9.99959 16.3728C10.5821 16.4794 11.2886 16.3612 11.6644 16.0943C11.746 16.0363 11.8269 16.003 11.8441 16.0201C11.8917 16.0676 18.454 9.502 18.4276 9.43334C18.4149 9.40049 18.4311 9.35722 18.4635 9.33726C18.5012 9.31399 18.5101 9.32092 18.4881 9.3564C18.4359 9.44064 18.4869 9.42276 18.5619 9.33058C18.6069 9.27528 18.6088 9.26081 18.5678 9.28533C18.4836 9.33582 18.4891 9.31519 18.6521 8.97149C18.7317 8.80382 18.7989 8.61255 18.8016 8.54643L18.8064 8.42622L18.8424 8.54643C18.8719 8.64486 18.8853 8.61553 18.9162 8.38477C18.9585 8.06857 18.8968 7.60293 18.7784 7.34434C18.725 7.22759 18.7091 7.21287 18.7267 7.29625C18.7471 7.39367 18.7337 7.38453 18.6558 7.24817C18.5406 7.04622 18.5264 6.95284 18.6307 7.08271C18.7022 7.17167 18.7031 7.1708 18.6509 7.06372C18.6208 7.00198 18.5836 6.9639 18.5684 6.97919C18.533 7.01439 18.4112 6.91562 18.4112 6.85172C18.4112 6.82527 18.4492 6.8322 18.4955 6.8671C18.5419 6.90201 18.4742 6.82013 18.3451 6.68516C17.8258 6.14229 17.0092 5.91658 16.285 6.11575ZM17.2784 6.14147C17.3579 6.16123 17.2278 6.16648 16.9892 6.15316C16.7505 6.13984 16.5463 6.12108 16.5352 6.11156C16.4982 6.07954 17.1319 6.10507 17.2784 6.14147ZM16.4469 6.17407C16.4137 6.18744 16.3595 6.18744 16.3263 6.17407C16.2932 6.16075 16.3203 6.14984 16.3866 6.14984C16.4529 6.14984 16.48 6.16075 16.4469 6.17407ZM17.8887 6.36939C18.0122 6.43541 18.1858 6.5673 18.2743 6.66241L18.4353 6.83542L18.2235 6.65102C18.107 6.54961 17.8793 6.40387 17.7174 6.32712C17.5555 6.25038 17.4772 6.20148 17.5435 6.21845C17.6098 6.23543 17.7651 6.30332 17.8887 6.36939ZM21.9572 6.541C21.9754 6.58841 22.0023 6.6151 22.0172 6.60029C22.032 6.58553 22.0172 6.54672 21.9842 6.51407C21.9366 6.46695 21.9311 6.47248 21.9572 6.541ZM22.0265 6.70203C22.0265 6.72785 22.0602 6.79094 22.1014 6.84229C22.1721 6.93029 22.1731 6.92875 22.119 6.81541C22.0487 6.66823 22.0265 6.64097 22.0265 6.70203ZM22.2583 7.27221C22.2827 7.3251 22.3147 7.40083 22.3295 7.4405C22.3526 7.50282 22.3568 7.50244 22.3601 7.43767C22.3621 7.39646 22.3301 7.32073 22.2889 7.26937C22.2152 7.17753 22.2146 7.17758 22.2583 7.27221ZM18.8416 7.72502C18.8465 7.89302 18.8143 7.83205 18.7802 7.6088C18.7598 7.47474 18.7641 7.4456 18.7945 7.51263C18.8186 7.56552 18.8397 7.66111 18.8416 7.72502ZM18.8799 8.26908C18.8692 8.35549 18.8602 8.29639 18.8599 8.13772C18.8597 7.97904 18.8684 7.90831 18.8795 7.98058C18.8905 8.05285 18.8906 8.18268 18.8799 8.26908ZM22.5605 8.23788C22.5628 8.29389 22.5742 8.30529 22.5896 8.26697C22.6036 8.23225 22.6018 8.19075 22.5858 8.17479C22.5698 8.15883 22.5584 8.1872 22.5605 8.23788ZM22.6072 8.38213C22.6141 8.51123 22.7909 9.22734 22.7941 9.13844C22.7979 9.02847 22.6605 8.39348 22.6252 8.35833C22.6141 8.34717 22.606 8.35789 22.6072 8.38213ZM7.89776 9.16811C8.15845 9.27206 8.5957 9.55412 8.55661 9.59317C8.54514 9.60456 8.45297 9.54821 8.35179 9.46791C8.01099 9.19734 7.69858 9.1042 7.13146 9.1042C6.5614 9.1042 6.29672 9.1846 5.85609 9.49156C5.62292 9.65399 5.61989 9.65476 5.78175 9.51046C5.96932 9.34323 6.3549 9.14728 6.63487 9.07689C6.9331 9.00193 7.60217 9.0503 7.89776 9.16811ZM18.4112 9.47219C18.4112 9.47887 16.9307 10.9556 15.1213 12.7539L11.8313 16.0235L15.1091 12.7417C18.156 9.69111 18.4112 9.43843 18.4112 9.47219ZM22.9834 11.0227C22.9834 11.5781 22.9687 12.1299 22.9508 12.2489C22.9329 12.3679 22.9182 11.8161 22.9182 11.0227C22.9182 10.2294 22.9329 9.6776 22.9508 9.79661C22.9687 9.91562 22.9834 10.4674 22.9834 11.0227ZM9.54166 16.1893C9.68747 16.2691 9.78509 16.3345 9.75857 16.3347C9.55968 16.3364 9.06854 15.8941 7.34838 14.1639L5.46843 12.2729L7.37248 14.1587C8.76567 15.5385 9.34768 16.0833 9.54166 16.1893ZM22.8682 12.8C22.8495 12.9489 22.8242 13.0607 22.812 13.0485C22.7998 13.0363 22.805 12.9045 22.8237 12.7556C22.8423 12.6067 22.8676 12.4949 22.8798 12.5071C22.8921 12.5193 22.8868 12.6511 22.8682 12.8ZM1.2544 13.3348C1.25671 13.3908 1.26814 13.4022 1.28352 13.3638C1.29745 13.3291 1.29571 13.2876 1.27971 13.2717C1.2637 13.2557 1.25233 13.2841 1.2544 13.3348ZM1.3068 13.5231C1.30617 13.6255 1.43044 14.0372 1.43743 13.9559C1.4397 13.9294 1.41135 13.7996 1.37448 13.6674C1.3376 13.5351 1.30714 13.4702 1.3068 13.5231ZM1.57423 14.5095C1.58821 14.5629 1.6167 14.617 1.63752 14.6298C1.6584 14.6427 1.66399 14.6096 1.65001 14.5562C1.63603 14.5029 1.60754 14.4487 1.58672 14.4359C1.56585 14.423 1.56025 14.4562 1.57423 14.5095ZM1.66341 14.7633C1.68153 14.8107 1.70848 14.8374 1.72333 14.8226C1.73817 14.8078 1.72338 14.769 1.6904 14.7364C1.64278 14.6893 1.63728 14.6948 1.66341 14.7633ZM22.2465 14.7832C22.2203 14.8518 22.2258 14.8573 22.2735 14.8102C22.3064 14.7775 22.3212 14.7387 22.3064 14.7239C22.2915 14.7091 22.2646 14.7358 22.2465 14.7832ZM22.1501 15.0237C22.1239 15.0922 22.1294 15.0977 22.177 15.0506C22.21 15.0179 22.2248 14.9791 22.21 14.9644C22.1951 14.9496 22.1682 14.9762 22.1501 15.0237ZM22.0565 15.256C22.01 15.3769 22.0237 15.4081 22.0805 15.3106C22.1087 15.2623 22.1216 15.2127 22.1091 15.2004C22.0967 15.188 22.073 15.213 22.0565 15.256ZM1.97365 15.5157C1.97365 15.5406 1.9951 15.5742 2.02132 15.5904C2.04861 15.6072 2.05671 15.5879 2.04027 15.5451C2.00821 15.4618 1.97365 15.4466 1.97365 15.5157ZM21.8608 15.6968C21.8347 15.7653 21.8402 15.7709 21.8878 15.7238C21.9208 15.6911 21.9356 15.6523 21.9207 15.6375C21.9059 15.6227 21.879 15.6494 21.8608 15.6968ZM2.07006 15.7081C2.07006 15.733 2.09151 15.7665 2.11773 15.7827C2.14501 15.7995 2.15311 15.7802 2.13668 15.7375C2.10462 15.6542 2.07006 15.6389 2.07006 15.7081ZM21.7162 15.9853C21.6901 16.0538 21.6956 16.0594 21.7432 16.0123C21.7762 15.9796 21.791 15.9408 21.7761 15.926C21.7613 15.9112 21.7343 15.9379 21.7162 15.9853ZM21.3034 16.7207C21.275 16.7736 21.2627 16.8168 21.2759 16.8168C21.2892 16.8168 21.3232 16.7736 21.3516 16.7207C21.38 16.6678 21.3923 16.6245 21.3791 16.6245C21.3658 16.6245 21.3318 16.6678 21.3034 16.7207ZM20.9598 17.2376C20.8999 17.3138 20.9016 17.3155 20.978 17.2557C21.0583 17.1929 21.0838 17.1534 21.0442 17.1534C21.0342 17.1534 20.9962 17.1913 20.9598 17.2376ZM20.3357 18.055L20.2188 18.1872L20.3514 18.0707C20.4243 18.0065 20.4839 17.947 20.4839 17.9384C20.4839 17.9007 20.4449 17.9314 20.3357 18.055ZM3.70899 18.1872C3.79894 18.2798 3.88334 18.3555 3.8966 18.3555C3.90985 18.3555 3.84714 18.2798 3.75719 18.1872C3.66724 18.0947 3.58284 18.0189 3.56958 18.0189C3.55633 18.0189 3.61904 18.0947 3.70899 18.1872ZM19.7118 18.7282L19.2065 19.2451L19.7247 18.7411C20.0098 18.4639 20.2429 18.2312 20.2429 18.2242C20.2429 18.1894 20.1811 18.2481 19.7118 18.7282ZM18.986 19.4013L18.8691 19.5336L19.0137 19.4134C19.0933 19.3472 19.1674 19.2877 19.1784 19.2811C19.1895 19.2745 19.177 19.2691 19.1507 19.2691C19.1243 19.2691 19.0503 19.3286 18.986 19.4013ZM17.0856 20.7597C17.0692 20.7862 17.0341 20.8078 17.0076 20.8078C16.9811 20.8078 16.9728 20.7862 16.9892 20.7597C17.0055 20.7333 17.0406 20.7116 17.0671 20.7116C17.0937 20.7116 17.1019 20.7333 17.0856 20.7597ZM16.8927 20.8559C16.8764 20.8823 16.8371 20.9036 16.8055 20.9032C16.771 20.9028 16.777 20.8839 16.8204 20.8559C16.913 20.7962 16.9297 20.7962 16.8927 20.8559ZM16.724 20.9257C16.724 20.9513 16.2921 21.1462 16.2479 21.1406C16.2226 21.1374 16.6768 20.9064 16.712 20.9046C16.7186 20.9042 16.724 20.9138 16.724 20.9257ZM16.1456 21.1884C15.9979 21.2724 15.1345 21.577 15.0511 21.5746C15.0035 21.5732 15.1707 21.5003 15.4225 21.4127C15.6744 21.3251 15.9347 21.2303 16.001 21.2019C16.1458 21.1401 16.2472 21.1306 16.1456 21.1884ZM9.25243 21.6252C9.34932 21.6562 9.35405 21.664 9.27654 21.6651C9.22351 21.6659 9.13674 21.648 9.08372 21.6252C8.9609 21.5726 9.08762 21.5726 9.25243 21.6252ZM14.9317 21.6019C14.8564 21.6771 13.5896 21.9292 13.4355 21.8998C13.3371 21.8809 13.3391 21.878 13.4547 21.8722C13.6104 21.8643 14.4731 21.6934 14.6754 21.6305C14.8394 21.5793 14.9687 21.565 14.9317 21.6019ZM9.77318 21.7432C9.95071 21.7816 10.2153 21.8348 10.3611 21.8615L10.6262 21.91L10.3611 21.8865C10.0774 21.8613 9.39704 21.7244 9.39704 21.6925C9.39704 21.6638 9.42221 21.6672 9.77318 21.7432ZM13.0605 21.9691C12.7136 22.01 11.2242 22.0104 10.9155 21.9696C10.7829 21.9521 11.271 21.9378 12.0001 21.9378C12.7291 21.9378 13.2064 21.9518 13.0605 21.9691Z" fill="white"/>
</svg>
