<svg width="18" height="17" viewBox="0 0 18 17" fill="none" xmlns="http://www.w3.org/2000/svg">
<path d="M16.0624 12.9841C16.0624 13.2391 16.0057 13.5012 15.8853 13.7562C15.7649 14.0112 15.6091 14.252 15.4037 14.4787C15.0566 14.8612 14.6741 15.1374 14.242 15.3145C13.817 15.4916 13.3566 15.5837 12.8607 15.5837C12.1382 15.5837 11.3662 15.4137 10.5516 15.0666C9.73699 14.7195 8.92241 14.252 8.11491 13.6641C7.30033 13.0691 6.52824 12.4103 5.79158 11.6807C5.06199 10.9441 4.40324 10.172 3.81533 9.36449C3.23449 8.55699 2.76699 7.74949 2.42699 6.94908C2.08699 6.14158 1.91699 5.36949 1.91699 4.63283C1.91699 4.15116 2.00199 3.69074 2.17199 3.26574C2.34199 2.83366 2.61116 2.43699 2.98658 2.08283C3.43991 1.63658 3.93574 1.41699 4.45991 1.41699C4.65824 1.41699 4.85658 1.45949 5.03366 1.54449C5.21783 1.62949 5.38074 1.75699 5.50824 1.94116L7.15158 4.25741C7.27908 4.43449 7.37116 4.59741 7.43491 4.75324C7.49866 4.90199 7.53408 5.05074 7.53408 5.18533C7.53408 5.35533 7.48449 5.52533 7.38533 5.68824C7.29324 5.85116 7.15866 6.02116 6.98866 6.19116L6.45033 6.75074C6.37241 6.82866 6.33699 6.92074 6.33699 7.03408C6.33699 7.09074 6.34408 7.14033 6.35824 7.19699C6.37949 7.25366 6.40074 7.29616 6.41491 7.33866C6.54241 7.57241 6.76199 7.87699 7.07366 8.24533C7.39241 8.61366 7.73241 8.98908 8.10074 9.36449C8.48324 9.73991 8.85158 10.087 9.22699 10.4057C9.59533 10.7174 9.89991 10.9299 10.1407 11.0574C10.1762 11.0716 10.2187 11.0928 10.2682 11.1141C10.3249 11.1353 10.3816 11.1424 10.4453 11.1424C10.5657 11.1424 10.6578 11.0999 10.7357 11.022L11.2741 10.4907C11.4512 10.3137 11.6212 10.1791 11.7841 10.0941C11.947 9.99491 12.1099 9.94533 12.287 9.94533C12.4216 9.94533 12.5632 9.97366 12.7191 10.0374C12.8749 10.1012 13.0378 10.1932 13.2149 10.3137L15.5595 11.9782C15.7437 12.1057 15.8712 12.2545 15.9491 12.4316C16.0199 12.6087 16.0624 12.7857 16.0624 12.9841Z" stroke="#959ABD" stroke-width="1.5" stroke-miterlimit="10"/>
<path d="M13.6042 6.37565C13.6042 5.95065 13.2713 5.29898 12.7754 4.76773C12.3221 4.27898 11.72 3.89648 11.125 3.89648" stroke="#959ABD" stroke-width="1.5" stroke-linecap="round" stroke-linejoin="round"/>
<path d="M16.0833 6.37533C16.0833 3.63408 13.8662 1.41699 11.125 1.41699" stroke="#959ABD" stroke-width="1.5" stroke-linecap="round" stroke-linejoin="round"/>
</svg>
