<svg width="20" height="20" viewBox="0 0 20 20" fill="none" xmlns="http://www.w3.org/2000/svg">
<path d="M5.83366 8.95832H4.16699C2.15033 8.95832 1.04199 7.84999 1.04199 5.83332V4.16666C1.04199 2.14999 2.15033 1.04166 4.16699 1.04166H5.83366C7.85033 1.04166 8.95866 2.14999 8.95866 4.16666V5.83332C8.95866 7.84999 7.85033 8.95832 5.83366 8.95832ZM4.16699 2.29166C2.85033 2.29166 2.29199 2.84999 2.29199 4.16666V5.83332C2.29199 7.14999 2.85033 7.70832 4.16699 7.70832H5.83366C7.15033 7.70832 7.70866 7.14999 7.70866 5.83332V4.16666C7.70866 2.84999 7.15033 2.29166 5.83366 2.29166H4.16699Z" fill="white"/>
<path d="M15.8337 8.95832H14.167C12.1503 8.95832 11.042 7.84999 11.042 5.83332V4.16666C11.042 2.14999 12.1503 1.04166 14.167 1.04166H15.8337C17.8503 1.04166 18.9587 2.14999 18.9587 4.16666V5.83332C18.9587 7.84999 17.8503 8.95832 15.8337 8.95832ZM14.167 2.29166C12.8503 2.29166 12.292 2.84999 12.292 4.16666V5.83332C12.292 7.14999 12.8503 7.70832 14.167 7.70832H15.8337C17.1503 7.70832 17.7087 7.14999 17.7087 5.83332V4.16666C17.7087 2.84999 17.1503 2.29166 15.8337 2.29166H14.167Z" fill="white"/>
<path d="M15.8337 18.9583H14.167C12.1503 18.9583 11.042 17.85 11.042 15.8333V14.1667C11.042 12.15 12.1503 11.0417 14.167 11.0417H15.8337C17.8503 11.0417 18.9587 12.15 18.9587 14.1667V15.8333C18.9587 17.85 17.8503 18.9583 15.8337 18.9583ZM14.167 12.2917C12.8503 12.2917 12.292 12.85 12.292 14.1667V15.8333C12.292 17.15 12.8503 17.7083 14.167 17.7083H15.8337C17.1503 17.7083 17.7087 17.15 17.7087 15.8333V14.1667C17.7087 12.85 17.1503 12.2917 15.8337 12.2917H14.167Z" fill="white"/>
<path d="M5.83366 18.9583H4.16699C2.15033 18.9583 1.04199 17.85 1.04199 15.8333V14.1667C1.04199 12.15 2.15033 11.0417 4.16699 11.0417H5.83366C7.85033 11.0417 8.95866 12.15 8.95866 14.1667V15.8333C8.95866 17.85 7.85033 18.9583 5.83366 18.9583ZM4.16699 12.2917C2.85033 12.2917 2.29199 12.85 2.29199 14.1667V15.8333C2.29199 17.15 2.85033 17.7083 4.16699 17.7083H5.83366C7.15033 17.7083 7.70866 17.15 7.70866 15.8333V14.1667C7.70866 12.85 7.15033 12.2917 5.83366 12.2917H4.16699Z" fill="white"/>
</svg>
