<svg width="23" height="23" viewBox="0 0 23 23" fill="none" xmlns="http://www.w3.org/2000/svg">
<path fill-rule="evenodd" clip-rule="evenodd" d="M2.45569 0.535603C2.54679 0.564693 2.50568 0.575512 2.28698 0.579936C2.11585 0.583398 1.91412 0.623692 1.79289 0.678556C1.68023 0.729573 1.58802 0.762125 1.58802 0.750874C1.58802 0.71183 1.87507 0.582629 2.05646 0.540026C2.2797 0.487567 2.30447 0.487278 2.45569 0.535603ZM12.8155 0.566328C12.8266 0.575897 12.447 0.579888 11.972 0.575176C11.3564 0.569165 11.2052 0.557962 11.4457 0.536228C11.766 0.507281 12.7728 0.5294 12.8155 0.566328ZM3.13464 0.828529C3.58183 1.09842 4.38958 1.65773 5.1283 2.20897C5.56035 2.53137 5.61738 2.56055 5.70675 2.50507C5.79646 2.44934 5.79959 2.45107 5.73972 2.52334C5.65556 2.62494 5.59718 2.62398 5.47224 2.51906C5.37212 2.43501 5.37212 2.43501 5.46385 2.5431C5.51437 2.60258 5.57395 2.65129 5.59631 2.65129C5.61863 2.65129 5.75086 2.57171 5.89012 2.47448C6.28819 2.19646 6.32492 2.13578 5.95047 2.37466L5.80586 2.46689L5.9442 2.34831C6.02032 2.28311 6.17216 2.18209 6.28163 2.12386L6.48071 2.01803L6.3602 2.12155C6.29252 2.17968 6.39823 2.13924 6.60122 2.02937C6.80006 1.92176 6.95764 1.813 6.95137 1.78766C6.93069 1.70413 8.53617 1.01105 8.73212 1.01894C8.76644 1.02034 8.67519 1.06496 8.52938 1.11819C7.78843 1.38846 6.88818 1.78511 7.01447 1.78559C7.04291 1.78568 7.2056 1.71832 7.376 1.6359C7.5464 1.55349 7.74004 1.46458 7.80632 1.43838C8.57396 1.13468 9.42211 0.893634 10.2406 0.746546C10.9957 0.610902 13.0217 0.621528 13.8077 0.765299C16.1278 1.18964 17.9593 2.13102 19.6645 3.77578C20.2686 4.35855 20.279 4.36629 19.8091 3.88445C19.255 3.31619 18.7628 2.89113 18.2425 2.53132C17.9019 2.2959 17.7423 2.16872 17.8809 2.24335C18.1113 2.36731 18.7489 2.84771 19.2254 3.25623C19.8493 3.79126 20.8778 4.92262 20.5746 4.74038C20.5181 4.70649 20.5181 4.71274 20.5742 4.78178C20.6513 4.87665 20.6984 4.89036 20.6472 4.80304C20.6278 4.77 20.6591 4.78414 20.7167 4.83453C20.8409 4.94325 20.859 5.0486 20.737 4.95316C20.6609 4.89363 20.659 4.89526 20.7175 4.96979C20.7532 5.01523 20.8047 5.04769 20.832 5.04192C20.8593 5.03615 20.8926 5.06149 20.906 5.09822C20.9229 5.14467 20.91 5.15285 20.8638 5.12505C20.8073 5.09116 20.8073 5.09741 20.8634 5.16645C20.9405 5.26123 20.9882 5.27532 20.9355 5.18771C20.9109 5.14688 20.9254 5.14876 20.9808 5.19357C21.075 5.26974 21.0919 5.36663 21.0021 5.31508C20.9671 5.29498 20.9587 5.29883 20.982 5.32427C21.0041 5.34831 21.0457 5.36802 21.0744 5.36802C21.1032 5.36802 21.1367 5.39807 21.149 5.43481C21.1642 5.48049 21.1503 5.48948 21.1048 5.46318C21.0655 5.44048 21.0547 5.44265 21.0784 5.46852C21.1006 5.49256 21.1421 5.51227 21.1708 5.51227C21.1996 5.51227 21.2331 5.54233 21.2454 5.57906C21.2606 5.62474 21.2467 5.63373 21.2012 5.60743C21.1619 5.58474 21.1511 5.5869 21.1748 5.61277C21.197 5.63681 21.2385 5.65652 21.2672 5.65652C21.296 5.65652 21.3295 5.68658 21.3418 5.72331C21.3567 5.76784 21.3435 5.77741 21.3022 5.75197C21.2613 5.72673 21.2522 5.73288 21.2752 5.7701C21.2944 5.80106 21.3293 5.81453 21.3529 5.80001C21.411 5.76414 21.5569 6.05432 21.5148 6.12217C21.4947 6.15462 21.503 6.16294 21.5354 6.14289C21.5692 6.12207 21.6572 6.24122 21.7697 6.46005C22.0646 7.0336 22.2227 7.42783 22.1706 7.45995C22.1413 7.47803 22.1508 7.5254 22.1953 7.58271C22.2667 7.6747 22.2673 7.67465 22.2422 7.57988C22.2281 7.52698 22.2572 7.57026 22.3067 7.67604C22.4132 7.90372 22.4905 8.19703 22.4143 8.08475C22.3556 7.9982 22.3542 8.07067 22.4121 8.20496C22.44 8.26973 22.4548 8.27757 22.4576 8.22901C22.4613 8.16491 22.4669 8.16491 22.5085 8.22901C22.5677 8.32041 22.5711 8.48395 22.513 8.44817C22.489 8.43331 22.4811 8.46635 22.4956 8.5215C22.5136 8.59035 22.5332 8.60343 22.5581 8.56328C22.5998 8.49592 22.6023 8.50308 22.7432 9.09451C22.8448 9.52126 22.9296 10.1641 22.8478 9.8879C22.8198 9.79356 22.8163 9.86842 22.8375 10.1043C22.8941 10.7323 22.8734 12.7444 22.8064 13.1335C22.699 13.7564 22.695 13.7959 22.7495 13.6865C22.7859 13.6134 22.7908 13.6381 22.7701 13.7892C22.7411 14.0011 22.5685 14.5877 22.5611 14.4996C22.5587 14.4707 22.589 14.3409 22.6285 14.2111C22.668 14.0812 22.6992 13.9317 22.6978 13.8788C22.6965 13.826 22.6459 13.9682 22.5853 14.195C22.5246 14.4219 22.4403 14.7092 22.3979 14.8335C22.3554 14.9578 22.3382 15.0487 22.3597 15.0354C22.3813 15.0221 22.4265 14.9127 22.4603 14.7923C22.4941 14.6718 22.5324 14.5839 22.5453 14.5967C22.6484 14.6996 21.593 17.0674 21.4565 17.0392C21.4214 17.0319 21.406 17.0475 21.4223 17.0738C21.4617 17.1373 21.3114 17.4236 21.2565 17.3897C21.2329 17.3752 21.198 17.3887 21.1788 17.4196C21.157 17.4548 21.1648 17.4631 21.1995 17.4416C21.2864 17.3881 21.2648 17.4896 21.1736 17.5634C21.1042 17.6196 21.0981 17.6194 21.1329 17.5618C21.1608 17.5157 21.1558 17.5053 21.1172 17.5291C21.0862 17.5483 21.0729 17.5834 21.0877 17.6073C21.1228 17.664 20.9674 17.9004 20.9158 17.8686C20.8941 17.8552 20.8605 17.8695 20.8414 17.9005C20.8196 17.9356 20.8273 17.9439 20.8621 17.9225C20.949 17.8689 20.9274 17.9704 20.8362 18.0442C20.7808 18.0891 20.7663 18.0909 20.7908 18.0501C20.8436 17.9625 20.7959 17.9766 20.7188 18.0714C20.6739 18.1267 20.672 18.1411 20.7129 18.1166C20.8149 18.0555 20.7795 18.1621 20.6655 18.259C20.5779 18.3336 20.57 18.335 20.6232 18.2665C20.7164 18.1465 20.6612 18.1622 20.5517 18.2868C20.5011 18.3442 20.487 18.3754 20.5201 18.3561C20.8589 18.1585 19.5981 19.4882 18.9173 20.0465C18.4035 20.4679 17.1579 21.2819 17.1579 21.1963C17.1579 21.1828 17.2935 21.0959 17.4591 21.0031C17.8391 20.7902 18.7039 20.1936 18.798 20.0794C18.8371 20.0319 18.739 20.0914 18.5799 20.2114C16.6972 21.6326 14.3698 22.4137 12.0175 22.4137C9.13024 22.4137 6.5668 21.3797 4.33492 19.3148L3.8777 18.8918L4.32884 19.334C5.47388 20.4565 6.87381 21.3277 8.39142 21.8621C8.71915 21.9776 8.96229 22.0731 8.93173 22.0746C8.79204 22.081 7.81499 21.7034 7.20126 21.4057C6.42711 21.0303 5.5819 20.4825 4.90632 19.9183C4.44954 19.5369 3.41977 18.4887 3.41977 18.4053C3.41977 18.382 3.4523 18.3898 3.49207 18.4228C3.60545 18.5166 3.57662 18.4484 3.45968 18.3461C3.39427 18.2888 3.3706 18.2815 3.39663 18.3266C3.43254 18.3888 3.42704 18.3896 3.35672 18.3328C3.27005 18.2626 3.24194 18.1562 3.32336 18.2064C3.40183 18.2548 3.37831 18.1996 3.29 18.1281C3.21967 18.0712 3.21432 18.072 3.25105 18.1343C3.28817 18.1971 3.28282 18.1976 3.20989 18.1386C3.16385 18.1013 3.13705 18.0425 3.15035 18.0079C3.16366 17.9733 3.15045 17.9301 3.121 17.912C3.08542 17.89 3.08113 17.9016 3.10822 17.9465C3.14298 18.0041 3.13695 18.0042 3.06749 17.9481C2.97335 17.8719 2.95638 17.775 3.04619 17.8266C3.08118 17.8467 3.08962 17.8428 3.06629 17.8174C3.04416 17.7933 3.00078 17.7736 2.96988 17.7735C2.93893 17.7734 2.91334 17.7371 2.913 17.6928C2.91266 17.6484 2.89295 17.5944 2.86913 17.5727C2.84392 17.5497 2.84224 17.5614 2.86513 17.6008C2.89242 17.6476 2.88639 17.6572 2.84547 17.6319C2.81307 17.612 2.79861 17.5642 2.81336 17.5259C2.82816 17.4875 2.82025 17.4684 2.79586 17.4834C2.77147 17.4985 2.71748 17.4623 2.67588 17.4031C2.587 17.2764 2.57716 17.2007 2.65598 17.2493C2.69073 17.2707 2.69849 17.2625 2.6767 17.2273C2.65752 17.1963 2.62257 17.1829 2.599 17.1974C2.54087 17.2333 2.395 16.9431 2.43708 16.8752C2.45718 16.8428 2.44894 16.8345 2.41655 16.8545C2.38314 16.875 2.30279 16.7725 2.20575 16.5854C1.91879 16.0318 1.63854 15.3432 1.87724 15.7782C2.00927 16.0188 1.99491 15.932 1.85237 15.628C1.7857 15.4858 1.74473 15.4235 1.76141 15.4897C1.7803 15.5647 1.77486 15.5918 1.74695 15.5618C1.67763 15.4873 1.42745 14.7202 1.46144 14.6863C1.47802 14.6697 1.49161 14.691 1.49161 14.7335C1.49161 14.776 1.51128 14.8229 1.53533 14.8377C1.55939 14.8526 1.55558 14.7884 1.52685 14.6951C1.49817 14.6019 1.46047 14.5485 1.44307 14.5766C1.42572 14.6046 1.38715 14.5457 1.35741 14.4456C1.26852 14.1465 1.1056 13.3813 1.11138 13.2904C1.11437 13.2438 1.14445 13.3247 1.17829 13.4701C1.25922 13.8182 1.26018 13.6384 1.17983 13.1816C1.13254 12.9129 1.11365 12.8639 1.10564 12.9893L1.09489 13.1576L1.05503 12.9653C1.0331 12.8595 1.01743 12.6647 1.02023 12.5325L1.02529 12.2921L1.05358 12.5565C1.06915 12.702 1.07537 10.3091 1.06742 7.23891C1.05513 2.49141 1.06327 1.62691 1.12203 1.45684C1.19882 1.23455 1.18933 1.20147 1.09562 1.36505C1.04659 1.45064 1.02842 2.59219 1.00856 6.83458L0.983398 12.1959L0.984459 6.83458C0.985423 1.77188 0.990292 1.46444 1.0719 1.31538C1.11943 1.22859 1.17756 1.16944 1.20109 1.18396C1.22466 1.19849 1.25961 1.18502 1.27879 1.15406C1.30058 1.11891 1.29282 1.11064 1.25806 1.13208C1.13789 1.20613 1.21164 1.07467 1.37833 0.917676C1.47513 0.826558 1.5389 0.779051 1.5201 0.812084C1.47223 0.896231 1.50776 0.887816 1.71508 0.76578C1.83709 0.693991 2.01424 0.649465 2.26013 0.628789C2.46046 0.61196 2.64793 0.594938 2.6767 0.590947C2.70548 0.586956 2.91155 0.693846 3.13464 0.828529ZM11.032 0.601237C11.0209 0.610902 10.8383 0.630376 10.6262 0.644512C10.3966 0.659851 10.3089 0.655283 10.4093 0.633309C10.5838 0.595082 11.0675 0.570175 11.032 0.601237ZM13.5185 0.630568C13.657 0.660236 13.6026 0.664371 13.3257 0.64533C13.1136 0.63076 12.931 0.610902 12.9199 0.601237C12.8816 0.567675 13.3268 0.589457 13.5185 0.630568ZM2.77388 0.723418C2.88258 0.772704 3.19171 0.95547 3.46079 1.12968C3.72986 1.30384 3.95001 1.43554 3.95001 1.42232C3.95001 1.39303 3.07111 0.821797 2.85578 0.71106C2.77089 0.667448 2.67328 0.632251 2.63886 0.632828C2.6044 0.633405 2.66513 0.67418 2.77388 0.723418ZM10.0237 0.734573C9.90439 0.759 9.5927 0.833482 9.3311 0.900029C9.06945 0.966626 8.84545 1.0112 8.83335 0.99913C8.80814 0.973934 8.83947 0.964558 9.39704 0.830548C9.9552 0.696395 9.98263 0.691057 10.1201 0.690577C10.1864 0.690336 10.143 0.710147 10.0237 0.734573ZM14.3274 0.770348C14.5602 0.819153 14.7663 0.87594 14.7853 0.896471C14.8044 0.917003 14.7549 0.917628 14.6754 0.897866C14.5958 0.878103 14.3464 0.823047 14.121 0.775493C13.8957 0.727986 13.7547 0.687403 13.8077 0.685287C13.8607 0.68322 14.0946 0.721495 14.3274 0.770348ZM1.36652 0.980378L1.27469 1.08857L1.38315 0.996967C1.48506 0.910897 1.51354 0.872189 1.47498 0.872189C1.46582 0.872189 1.41704 0.920898 1.36652 0.980378ZM15.0851 0.970569C15.1379 1.0062 15.1184 1.01067 15.0128 0.987109C14.8355 0.947536 14.7971 0.920032 14.9204 0.920994C14.9712 0.921427 15.0453 0.94369 15.0851 0.970569ZM15.3984 1.06452C15.4592 1.09059 15.4681 1.10583 15.4225 1.10583C15.3828 1.10583 15.3068 1.08727 15.2538 1.06452C15.193 1.03846 15.1842 1.02322 15.2297 1.02322C15.2695 1.02322 15.3454 1.04178 15.3984 1.06452ZM16.0503 1.30538C16.5568 1.5067 17.2061 1.81776 17.2061 1.85911C17.2061 1.87233 17.0552 1.80737 16.8707 1.71471C16.6863 1.62206 16.3121 1.45761 16.0392 1.34923C15.7663 1.24085 15.534 1.14329 15.5229 1.13237C15.4749 1.08506 15.5951 1.12448 16.0503 1.30538ZM3.99821 1.46545C3.99821 1.47795 4.20973 1.63985 4.4682 1.82516C4.72667 2.01048 5.03035 2.2308 5.14305 2.3147C5.25575 2.39861 5.34792 2.45636 5.34792 2.44304C5.34792 2.42972 5.11471 2.2482 4.82973 2.03966C4.15637 1.54695 3.99821 1.4377 3.99821 1.46545ZM6.89044 1.80886C6.89044 1.82151 6.80368 1.87608 6.69763 1.93003C6.59158 1.98398 6.50481 2.0174 6.50481 2.00427C6.50481 1.99115 6.58618 1.93758 6.68558 1.88522C6.89011 1.77751 6.89044 1.77741 6.89044 1.80886ZM17.7122 2.14569C17.7652 2.18906 17.7002 2.16559 17.5676 2.09342C17.435 2.02129 17.3049 1.94181 17.2784 1.91681C17.2028 1.8456 17.6043 2.05736 17.7122 2.14569ZM20.3875 4.5506C20.4498 4.61671 20.5116 4.67081 20.5249 4.67081C20.5381 4.67081 20.498 4.61671 20.4357 4.5506C20.3734 4.48448 20.3117 4.43039 20.2984 4.43039C20.2851 4.43039 20.3252 4.48448 20.3875 4.5506ZM21.7162 6.56016C21.7343 6.60757 21.7613 6.63426 21.7761 6.61945C21.791 6.60469 21.7762 6.56588 21.7432 6.53324C21.6956 6.48611 21.6901 6.49164 21.7162 6.56016ZM16.285 6.61575C15.7832 6.7538 15.6499 6.87165 13.0818 9.44553L10.578 11.9551L13.1087 9.44755C15.085 7.48943 15.6945 6.91271 15.8909 6.8152C16.0292 6.74654 16.1702 6.69033 16.2042 6.69037C16.2383 6.69037 16.1251 6.75649 15.9528 6.83727C15.6682 6.97065 15.4092 7.21285 13.1328 9.47365C11.2453 11.3482 10.5992 11.9622 10.5167 11.9593C10.4415 11.9567 10.1208 11.6703 9.49239 11.0446C8.98924 10.5437 8.57758 10.122 8.57758 10.1075C8.57758 10.093 9.00597 10.5029 9.5296 11.0183L10.4816 11.9555L9.54166 11.003C8.47384 9.92093 8.27052 9.75494 7.81692 9.59526C7.06234 9.3296 6.1293 9.54847 5.61188 10.1125C5.53298 10.1985 5.50641 10.24 5.55279 10.2047C5.67445 10.1122 5.65686 10.2164 5.53244 10.3252C5.47489 10.3756 5.44568 10.3864 5.46761 10.3493C5.4947 10.3033 5.48935 10.2929 5.45098 10.3166C5.41994 10.3357 5.40562 10.3692 5.41912 10.391C5.43261 10.4128 5.38523 10.5574 5.31384 10.7122C5.21015 10.9371 5.17776 11.0956 5.15313 11.4987L5.12228 12.0036L5.11461 11.5945C5.11037 11.3696 5.12821 11.1114 5.15429 11.0208C5.18032 10.9301 5.19261 10.8469 5.18157 10.8359C5.13211 10.7866 5.04901 11.2655 5.05407 11.5708C5.05913 11.8786 5.14088 12.3282 5.15096 12.1037C5.15636 11.9835 5.18191 12.0166 5.22211 12.1959C5.24573 12.3013 5.24125 12.3207 5.20553 12.268C5.17858 12.2284 5.1566 12.2176 5.1566 12.244C5.1566 12.3083 5.24963 12.4497 5.25151 12.3883C5.25339 12.3268 5.34643 12.4682 5.34643 12.5325C5.34643 12.5589 5.32343 12.5481 5.29533 12.5085C5.24987 12.4444 5.24636 12.4444 5.2639 12.5085C5.27475 12.5481 5.30974 12.5806 5.34165 12.5806C5.39988 12.5806 5.49041 12.691 5.49181 12.7637C5.49219 12.7851 5.46544 12.7878 5.43228 12.7696C5.39916 12.7514 6.24924 13.6144 7.32139 14.6874C8.58876 15.9558 9.34889 16.6807 9.49417 16.7596C9.78022 16.9149 10.2181 17.0285 10.5279 17.0278C10.9438 17.0268 11.6123 16.7998 11.7672 16.6071C11.8065 16.5582 11.7702 16.57 11.6737 16.6375C11.3593 16.8574 10.9996 16.954 10.5057 16.9512C10.2539 16.9498 9.99357 16.9236 9.92729 16.8931C9.82201 16.8446 9.83117 16.842 9.99959 16.8728C10.5821 16.9794 11.2886 16.8612 11.6644 16.5943C11.746 16.5363 11.8269 16.503 11.8441 16.5201C11.8917 16.5676 18.454 10.002 18.4276 9.93334C18.4149 9.90049 18.4311 9.85722 18.4635 9.83726C18.5012 9.81399 18.5101 9.82092 18.4881 9.8564C18.4359 9.94064 18.4869 9.92276 18.5619 9.83058C18.6069 9.77528 18.6088 9.76081 18.5678 9.78533C18.4836 9.83582 18.4891 9.81519 18.6521 9.47149C18.7317 9.30382 18.7989 9.11255 18.8016 9.04643L18.8064 8.92622L18.8424 9.04643C18.8719 9.14486 18.8853 9.11553 18.9162 8.88477C18.9585 8.56857 18.8968 8.10293 18.7784 7.84434C18.725 7.72759 18.7091 7.71287 18.7267 7.79625C18.7471 7.89367 18.7337 7.88453 18.6558 7.74817C18.5406 7.54622 18.5264 7.45284 18.6307 7.58271C18.7022 7.67167 18.7031 7.6708 18.6509 7.56372C18.6208 7.50198 18.5836 7.4639 18.5684 7.47919C18.533 7.51439 18.4112 7.41562 18.4112 7.35172C18.4112 7.32527 18.4492 7.3322 18.4955 7.3671C18.5419 7.40201 18.4742 7.32013 18.3451 7.18516C17.8258 6.64229 17.0092 6.41658 16.285 6.61575ZM17.2784 6.64147C17.3579 6.66123 17.2278 6.66648 16.9892 6.65316C16.7505 6.63984 16.5463 6.62108 16.5352 6.61156C16.4982 6.57954 17.1319 6.60507 17.2784 6.64147ZM16.4469 6.67407C16.4137 6.68744 16.3595 6.68744 16.3263 6.67407C16.2932 6.66075 16.3203 6.64984 16.3866 6.64984C16.4529 6.64984 16.48 6.66075 16.4469 6.67407ZM17.8887 6.86939C18.0122 6.93541 18.1858 7.0673 18.2743 7.16241L18.4353 7.33542L18.2235 7.15102C18.107 7.04961 17.8793 6.90387 17.7174 6.82712C17.5555 6.75038 17.4772 6.70148 17.5435 6.71845C17.6098 6.73543 17.7651 6.80332 17.8887 6.86939ZM21.9572 7.041C21.9754 7.08841 22.0023 7.1151 22.0172 7.10029C22.032 7.08553 22.0172 7.04672 21.9842 7.01407C21.9366 6.96695 21.9311 6.97248 21.9572 7.041ZM22.0265 7.20203C22.0265 7.22785 22.0602 7.29094 22.1014 7.34229C22.1721 7.43029 22.1731 7.42875 22.119 7.31541C22.0487 7.16823 22.0265 7.14097 22.0265 7.20203ZM22.2583 7.77221C22.2827 7.8251 22.3147 7.90083 22.3295 7.9405C22.3526 8.00282 22.3568 8.00244 22.3601 7.93767C22.3621 7.89646 22.3301 7.82073 22.2889 7.76937C22.2152 7.67753 22.2146 7.67758 22.2583 7.77221ZM18.8416 8.22502C18.8465 8.39302 18.8143 8.33205 18.7802 8.1088C18.7598 7.97474 18.7641 7.9456 18.7945 8.01263C18.8186 8.06552 18.8397 8.16111 18.8416 8.22502ZM18.8799 8.76908C18.8692 8.85549 18.8602 8.79639 18.8599 8.63772C18.8597 8.47904 18.8684 8.40831 18.8795 8.48058C18.8905 8.55285 18.8906 8.68268 18.8799 8.76908ZM22.5605 8.73788C22.5628 8.79389 22.5742 8.80529 22.5896 8.76697C22.6036 8.73225 22.6018 8.69075 22.5858 8.67479C22.5698 8.65883 22.5584 8.6872 22.5605 8.73788ZM22.6072 8.88213C22.6141 9.01123 22.7909 9.72734 22.7941 9.63844C22.7979 9.52847 22.6605 8.89348 22.6252 8.85833C22.6141 8.84717 22.606 8.85789 22.6072 8.88213ZM7.89776 9.66811C8.15845 9.77206 8.5957 10.0541 8.55661 10.0932C8.54514 10.1046 8.45297 10.0482 8.35179 9.96791C8.01099 9.69734 7.69858 9.6042 7.13146 9.6042C6.5614 9.6042 6.29672 9.6846 5.85609 9.99156C5.62292 10.154 5.61989 10.1548 5.78175 10.0105C5.96932 9.84323 6.3549 9.64728 6.63487 9.57689C6.9331 9.50193 7.60217 9.5503 7.89776 9.66811ZM18.4112 9.97219C18.4112 9.97887 16.9307 11.4556 15.1213 13.2539L11.8313 16.5235L15.1091 13.2417C18.156 10.1911 18.4112 9.93843 18.4112 9.97219ZM22.9834 11.5227C22.9834 12.0781 22.9687 12.6299 22.9508 12.7489C22.9329 12.8679 22.9182 12.3161 22.9182 11.5227C22.9182 10.7294 22.9329 10.1776 22.9508 10.2966C22.9687 10.4156 22.9834 10.9674 22.9834 11.5227ZM9.54166 16.6893C9.68747 16.7691 9.78509 16.8345 9.75857 16.8347C9.55968 16.8364 9.06854 16.3941 7.34838 14.6639L5.46843 12.7729L7.37248 14.6587C8.76567 16.0385 9.34768 16.5833 9.54166 16.6893ZM22.8682 13.3C22.8495 13.4489 22.8242 13.5607 22.812 13.5485C22.7998 13.5363 22.805 13.4045 22.8237 13.2556C22.8423 13.1067 22.8676 12.9949 22.8798 13.0071C22.8921 13.0193 22.8868 13.1511 22.8682 13.3ZM1.2544 13.8348C1.25671 13.8908 1.26814 13.9022 1.28352 13.8638C1.29745 13.8291 1.29571 13.7876 1.27971 13.7717C1.2637 13.7557 1.25233 13.7841 1.2544 13.8348ZM1.3068 14.0231C1.30617 14.1255 1.43044 14.5372 1.43743 14.4559C1.4397 14.4294 1.41135 14.2996 1.37448 14.1674C1.3376 14.0351 1.30714 13.9702 1.3068 14.0231ZM1.57423 15.0095C1.58821 15.0629 1.6167 15.117 1.63752 15.1298C1.6584 15.1427 1.66399 15.1096 1.65001 15.0562C1.63603 15.0029 1.60754 14.9487 1.58672 14.9359C1.56585 14.923 1.56025 14.9562 1.57423 15.0095ZM1.66341 15.2633C1.68153 15.3107 1.70848 15.3374 1.72333 15.3226C1.73817 15.3078 1.72338 15.269 1.6904 15.2364C1.64278 15.1893 1.63728 15.1948 1.66341 15.2633ZM22.2465 15.2832C22.2203 15.3518 22.2258 15.3573 22.2735 15.3102C22.3064 15.2775 22.3212 15.2387 22.3064 15.2239C22.2915 15.2091 22.2646 15.2358 22.2465 15.2832ZM22.1501 15.5237C22.1239 15.5922 22.1294 15.5977 22.177 15.5506C22.21 15.5179 22.2248 15.4791 22.21 15.4644C22.1951 15.4496 22.1682 15.4762 22.1501 15.5237ZM22.0565 15.756C22.01 15.8769 22.0237 15.9081 22.0805 15.8106C22.1087 15.7623 22.1216 15.7127 22.1091 15.7004C22.0967 15.688 22.073 15.713 22.0565 15.756ZM1.97365 16.0157C1.97365 16.0406 1.9951 16.0742 2.02132 16.0904C2.04861 16.1072 2.05671 16.0879 2.04027 16.0451C2.00821 15.9618 1.97365 15.9466 1.97365 16.0157ZM21.8608 16.1968C21.8347 16.2653 21.8402 16.2709 21.8878 16.2238C21.9208 16.1911 21.9356 16.1523 21.9207 16.1375C21.9059 16.1227 21.879 16.1494 21.8608 16.1968ZM2.07006 16.2081C2.07006 16.233 2.09151 16.2665 2.11773 16.2827C2.14501 16.2995 2.15311 16.2802 2.13668 16.2375C2.10462 16.1542 2.07006 16.1389 2.07006 16.2081ZM21.7162 16.4853C21.6901 16.5538 21.6956 16.5594 21.7432 16.5123C21.7762 16.4796 21.791 16.4408 21.7761 16.426C21.7613 16.4112 21.7343 16.4379 21.7162 16.4853ZM21.3034 17.2207C21.275 17.2736 21.2627 17.3168 21.2759 17.3168C21.2892 17.3168 21.3232 17.2736 21.3516 17.2207C21.38 17.1678 21.3923 17.1245 21.3791 17.1245C21.3658 17.1245 21.3318 17.1678 21.3034 17.2207ZM20.9598 17.7376C20.8999 17.8138 20.9016 17.8155 20.978 17.7557C21.0583 17.6929 21.0838 17.6534 21.0442 17.6534C21.0342 17.6534 20.9962 17.6913 20.9598 17.7376ZM20.3357 18.555L20.2188 18.6872L20.3514 18.5707C20.4243 18.5065 20.4839 18.447 20.4839 18.4384C20.4839 18.4007 20.4449 18.4314 20.3357 18.555ZM3.70899 18.6872C3.79894 18.7798 3.88334 18.8555 3.8966 18.8555C3.90985 18.8555 3.84714 18.7798 3.75719 18.6872C3.66724 18.5947 3.58284 18.5189 3.56958 18.5189C3.55633 18.5189 3.61904 18.5947 3.70899 18.6872ZM19.7118 19.2282L19.2065 19.7451L19.7247 19.2411C20.0098 18.9639 20.2429 18.7312 20.2429 18.7242C20.2429 18.6894 20.1811 18.7481 19.7118 19.2282ZM18.986 19.9013L18.8691 20.0336L19.0137 19.9134C19.0933 19.8472 19.1674 19.7877 19.1784 19.7811C19.1895 19.7745 19.177 19.7691 19.1507 19.7691C19.1243 19.7691 19.0503 19.8286 18.986 19.9013ZM17.0856 21.2597C17.0692 21.2862 17.0341 21.3078 17.0076 21.3078C16.9811 21.3078 16.9728 21.2862 16.9892 21.2597C17.0055 21.2333 17.0406 21.2116 17.0671 21.2116C17.0937 21.2116 17.1019 21.2333 17.0856 21.2597ZM16.8927 21.3559C16.8764 21.3823 16.8371 21.4036 16.8055 21.4032C16.771 21.4028 16.777 21.3839 16.8204 21.3559C16.913 21.2962 16.9297 21.2962 16.8927 21.3559ZM16.724 21.4257C16.724 21.4513 16.2921 21.6462 16.2479 21.6406C16.2226 21.6374 16.6768 21.4064 16.712 21.4046C16.7186 21.4042 16.724 21.4138 16.724 21.4257ZM16.1456 21.6884C15.9979 21.7724 15.1345 22.077 15.0511 22.0746C15.0035 22.0732 15.1707 22.0003 15.4225 21.9127C15.6744 21.8251 15.9347 21.7303 16.001 21.7019C16.1458 21.6401 16.2472 21.6306 16.1456 21.6884ZM9.25243 22.1252C9.34932 22.1562 9.35405 22.164 9.27654 22.1651C9.22351 22.1659 9.13674 22.148 9.08372 22.1252C8.9609 22.0726 9.08762 22.0726 9.25243 22.1252ZM14.9317 22.1019C14.8564 22.1771 13.5896 22.4292 13.4355 22.3998C13.3371 22.3809 13.3391 22.378 13.4547 22.3722C13.6104 22.3643 14.4731 22.1934 14.6754 22.1305C14.8394 22.0793 14.9687 22.065 14.9317 22.1019ZM9.77318 22.2432C9.95071 22.2816 10.2153 22.3348 10.3611 22.3615L10.6262 22.41L10.3611 22.3865C10.0774 22.3613 9.39704 22.2244 9.39704 22.1925C9.39704 22.1638 9.42221 22.1672 9.77318 22.2432ZM13.0605 22.4691C12.7136 22.51 11.2242 22.5104 10.9155 22.4696C10.7829 22.4521 11.271 22.4378 12.0001 22.4378C12.7291 22.4378 13.2064 22.4518 13.0605 22.4691Z" fill="white"/>
</svg>
