<svg width="20" height="21" viewBox="0 0 20 21" fill="none" xmlns="http://www.w3.org/2000/svg">
<path d="M17.8253 6.9526V6.95397V13.9373C17.8253 15.3545 17.4048 16.4257 16.6884 17.1421C15.9721 17.8585 14.9009 18.279 13.4837 18.279H6.50866C5.09144 18.279 4.02041 17.8585 3.3041 17.1413C2.58772 16.424 2.16699 15.3507 2.16699 13.929V6.95397C2.16699 5.53674 2.5875 4.46557 3.30388 3.74919C4.02025 3.03282 5.09143 2.6123 6.50866 2.6123H13.492C14.9093 2.6123 15.9803 3.03286 16.6955 3.74897C17.4106 4.46498 17.8292 5.53568 17.8253 6.9526ZM15.0931 6.82562L15.1127 6.80801L15.1303 6.78846C15.2417 6.66463 15.3311 6.52522 15.3952 6.37128C15.4582 6.22013 15.5003 6.04649 15.5003 5.8623C15.5003 5.68066 15.4593 5.50926 15.3978 5.35959C15.3282 5.18158 15.2317 5.04882 15.1303 4.93615L15.1029 4.90576L15.071 4.88021C15.0679 4.87776 15.0631 4.87373 15.054 4.86584C15.0522 4.86434 15.0499 4.86229 15.0471 4.8599C15.0395 4.85328 15.0288 4.84405 15.02 4.83654C14.9974 4.81731 14.9552 4.78198 14.9027 4.74911C14.8327 4.70324 14.757 4.66355 14.6757 4.63328C14.596 4.59653 14.5104 4.56895 14.4148 4.55352C13.9795 4.46478 13.5244 4.61446 13.2218 4.91709L13.2125 4.92638L13.2037 4.93616C13.1023 5.04883 13.0057 5.1816 12.9362 5.35962C12.8747 5.50928 12.8337 5.68067 12.8337 5.8623C12.8337 6.04649 12.8758 6.22014 12.9388 6.37128C13.0029 6.52522 13.0922 6.66463 13.2037 6.78845L13.2125 6.79823L13.2218 6.80752C13.4773 7.06308 13.8143 7.19564 14.167 7.19564C14.3512 7.19564 14.5248 7.15349 14.676 7.09051C14.8299 7.02637 14.9693 6.93706 15.0931 6.82562ZM6.26699 10.4456C6.26699 12.5051 7.94085 14.179 10.0003 14.179C12.0598 14.179 13.7337 12.5051 13.7337 10.4456C13.7337 8.38616 12.0598 6.71231 10.0003 6.71231C7.94085 6.71231 6.26699 8.38616 6.26699 10.4456Z" fill="#F7F9FC" stroke="#F7F9FC"/>
</svg>
