<svg width="25" height="25" viewBox="0 0 25 25" fill="none" xmlns="http://www.w3.org/2000/svg">
    <path d="M22.409 8.309v8.381c0 1.72-.51 3.034-1.393 3.917-.882.882-2.194 1.393-3.913 1.393H8.739c-1.72 0-3.032-.51-3.914-1.395-.882-.883-1.392-2.199-1.392-3.925V8.31c0-1.72.51-3.034 1.392-3.917C5.707 3.511 7.02 3 8.74 3h8.374c1.72 0 3.031.51 3.912 1.393.88.882 1.389 2.195 1.384 3.916zm-3.443-.227.02-.018.017-.02c.127-.14.228-.298.3-.472.071-.17.119-.366.119-.572 0-.203-.046-.396-.116-.566-.078-.2-.186-.349-.303-.478l-.027-.03-.032-.026a.684.684 0 0 1-.063-.055 1.266 1.266 0 0 0-.387-.228 1.498 1.498 0 0 0-1.635.319l-.01.01-.008.01c-.116.129-.225.278-.302.478-.07.17-.116.363-.116.566 0 .206.047.401.118.572.073.174.174.332.3.472l.009.01.009.01a1.489 1.489 0 0 0 1.635.317c.174-.072.332-.173.472-.3zM8.548 12.5a4.382 4.382 0 0 0 4.378 4.38 4.382 4.382 0 0 0 4.377-4.38 4.382 4.382 0 0 0-4.377-4.38 4.382 4.382 0 0 0-4.378 4.38z" fill="#F7F9FC" stroke="#F7F9FC"/>
</svg>
