<svg width="35" height="35" viewBox="0 0 35 35" fill="none" xmlns="http://www.w3.org/2000/svg">
<path d="M30.625 10.8021H4.375C4.05323 10.8021 3.78125 10.5301 3.78125 10.2083C3.78125 9.88657 4.05323 9.61459 4.375 9.61459H30.625C30.9468 9.61459 31.2188 9.88657 31.2188 10.2083C31.2188 10.5301 30.9468 10.8021 30.625 10.8021Z" fill="#292D32" stroke="#626E94"/>
<path d="M30.625 18.0938H4.375C4.05323 18.0938 3.78125 17.8218 3.78125 17.5C3.78125 17.1782 4.05323 16.9062 4.375 16.9062H30.625C30.9468 16.9062 31.2188 17.1782 31.2188 17.5C31.2188 17.8218 30.9468 18.0938 30.625 18.0938Z" fill="#292D32" stroke="#626E94"/>
<path d="M30.625 25.8854H4.375C3.77708 25.8854 3.28125 25.3896 3.28125 24.7917C3.28125 24.1937 3.77708 23.6979 4.375 23.6979H30.625C31.2229 23.6979 31.7188 24.1937 31.7188 24.7917C31.7188 25.3896 31.2229 25.8854 30.625 25.8854Z" fill="#292D32"/>
</svg>
