<svg width="43" height="47" viewBox="0 0 43 47" fill="none" xmlns="http://www.w3.org/2000/svg">
<g filter="url(#filter0_d_341_5896)">
<path opacity="0.4" d="M31.5456 5.45459H11.5456C7.86224 5.45459 4.87891 8.42126 4.87891 12.0713V28.8379C4.87891 32.4879 7.86224 35.4546 11.5456 35.4546H31.5456C35.2289 35.4546 38.2122 32.4879 38.2122 28.8379V12.0713C38.2122 8.42126 35.2289 5.45459 31.5456 5.45459Z" fill="white"/>
<path d="M33.2122 15.0381H24.8789C24.1956 15.0381 23.6289 14.4714 23.6289 13.7881C23.6289 13.1048 24.1956 12.5381 24.8789 12.5381H33.2122C33.8956 12.5381 34.4622 13.1048 34.4622 13.7881C34.4622 14.4714 33.8956 15.0381 33.2122 15.0381Z" fill="white"/>
<path d="M33.2126 21.7046H26.5459C25.8626 21.7046 25.2959 21.1379 25.2959 20.4546C25.2959 19.7713 25.8626 19.2046 26.5459 19.2046H33.2126C33.8959 19.2046 34.4626 19.7713 34.4626 20.4546C34.4626 21.1379 33.8959 21.7046 33.2126 21.7046Z" fill="white"/>
<path d="M33.2122 28.3711H29.8789C29.1956 28.3711 28.6289 27.8044 28.6289 27.1211C28.6289 26.4378 29.1956 25.8711 29.8789 25.8711H33.2122C33.8956 25.8711 34.4622 26.4378 34.4622 27.1211C34.4622 27.8044 33.8956 28.3711 33.2122 28.3711Z" fill="white"/>
<path d="M15.7123 20.1048C17.8386 20.1048 19.5623 18.3811 19.5623 16.2548C19.5623 14.1285 17.8386 12.4048 15.7123 12.4048C13.586 12.4048 11.8623 14.1285 11.8623 16.2548C11.8623 18.3811 13.586 20.1048 15.7123 20.1048Z" fill="white"/>
<path d="M17.0455 22.3047C16.1621 22.2214 15.2455 22.2214 14.3621 22.3047C11.5621 22.5714 9.31212 24.788 9.04545 27.588C9.02879 27.8214 9.09545 28.0547 9.26212 28.2214C9.42879 28.388 9.64545 28.5047 9.87879 28.5047H21.5455C21.7788 28.5047 22.0121 28.4047 22.1621 28.238C22.3121 28.0714 22.3955 27.838 22.3788 27.6047C22.0955 24.788 19.8621 22.5714 17.0455 22.3047Z" fill="white"/>
</g>
<defs>
<filter id="filter0_d_341_5896" x="-2.4541" y="0.45459" width="48" height="51" filterUnits="userSpaceOnUse" color-interpolation-filters="sRGB">
<feFlood flood-opacity="0" result="BackgroundImageFix"/>
<feColorMatrix in="SourceAlpha" type="matrix" values="0 0 0 0 0 0 0 0 0 0 0 0 0 0 0 0 0 0 127 0" result="hardAlpha"/>
<feOffset dy="7"/>
<feGaussianBlur stdDeviation="2"/>
<feComposite in2="hardAlpha" operator="out"/>
<feColorMatrix type="matrix" values="0 0 0 0 0 0 0 0 0 0 0 0 0 0 0 0 0 0 0.25 0"/>
<feBlend mode="normal" in2="BackgroundImageFix" result="effect1_dropShadow_341_5896"/>
<feBlend mode="normal" in="SourceGraphic" in2="effect1_dropShadow_341_5896" result="shape"/>
</filter>
</defs>
</svg>
