<svg width="21" height="21" viewBox="0 0 21 21" fill="none" xmlns="http://www.w3.org/2000/svg">
<path d="M2.16699 8.00033V5.91699C2.16699 3.84199 3.84199 2.16699 5.91699 2.16699H8.00033" stroke="#959ABD" stroke-width="1.5" stroke-linecap="round" stroke-linejoin="round"/>
<path d="M13 2.16699H15.0833C17.1583 2.16699 18.8333 3.84199 18.8333 5.91699V8.00033" stroke="#959ABD" stroke-width="1.5" stroke-linecap="round" stroke-linejoin="round"/>
<path d="M18.833 13.833V15.083C18.833 17.158 17.158 18.833 15.083 18.833H13.833" stroke="#959ABD" stroke-width="1.5" stroke-linecap="round" stroke-linejoin="round"/>
<path d="M8.00033 18.8333H5.91699C3.84199 18.8333 2.16699 17.1583 2.16699 15.0833V13" stroke="#959ABD" stroke-width="1.5" stroke-linecap="round" stroke-linejoin="round"/>
<path d="M9.24967 6.33301V7.99967C9.24967 8.83301 8.83301 9.24967 7.99967 9.24967H6.33301C5.49967 9.24967 5.08301 8.83301 5.08301 7.99967V6.33301C5.08301 5.49967 5.49967 5.08301 6.33301 5.08301H7.99967C8.83301 5.08301 9.24967 5.49967 9.24967 6.33301Z" stroke="#959ABD" stroke-width="1.5" stroke-linecap="round" stroke-linejoin="round"/>
<path d="M15.9167 6.33301V7.99967C15.9167 8.83301 15.5 9.24967 14.6667 9.24967H13C12.1667 9.24967 11.75 8.83301 11.75 7.99967V6.33301C11.75 5.49967 12.1667 5.08301 13 5.08301H14.6667C15.5 5.08301 15.9167 5.49967 15.9167 6.33301Z" stroke="#959ABD" stroke-width="1.5" stroke-linecap="round" stroke-linejoin="round"/>
<path d="M9.24967 13V14.6667C9.24967 15.5 8.83301 15.9167 7.99967 15.9167H6.33301C5.49967 15.9167 5.08301 15.5 5.08301 14.6667V13C5.08301 12.1667 5.49967 11.75 6.33301 11.75H7.99967C8.83301 11.75 9.24967 12.1667 9.24967 13Z" stroke="#959ABD" stroke-width="1.5" stroke-linecap="round" stroke-linejoin="round"/>
<path d="M15.9167 13V14.6667C15.9167 15.5 15.5 15.9167 14.6667 15.9167H13C12.1667 15.9167 11.75 15.5 11.75 14.6667V13C11.75 12.1667 12.1667 11.75 13 11.75H14.6667C15.5 11.75 15.9167 12.1667 15.9167 13Z" stroke="#959ABD" stroke-width="1.5" stroke-linecap="round" stroke-linejoin="round"/>
</svg>
