<svg width="25" height="25" viewBox="0 0 25 25" fill="none" xmlns="http://www.w3.org/2000/svg">
    <path d="M17.237 3.935c1.947-.65 3.27-.385 3.961.308.693.694.957 2.021.313 3.97l-3.008 9.019c-.494 1.486-1.055 2.56-1.628 3.254-.574.695-1.113.956-1.575.956-.462 0-1-.26-1.575-.956-.572-.694-1.134-1.768-1.628-3.254l-.89-2.68-.078-.237-.238-.08-2.678-.89c-1.484-.494-2.558-1.055-3.251-1.627-.695-.574-.956-1.113-.956-1.574 0-.462.261-1.001.956-1.576.693-.574 1.767-1.137 3.251-1.634l9.024-3zm-3.282 9.079v-.002l3.797-3.819h.001a1.255 1.255 0 0 0 0-1.766 1.254 1.254 0 0 0-1.767 0h-.001l-3.797 3.82a1.255 1.255 0 0 0 0 1.767l.354-.354-.354.354c.249.248.568.366.884.366.315 0 .634-.118.883-.367z" fill="#F7F9FC" stroke="#F7F9FC"/>
</svg>
