<svg width="25" height="25" viewBox="0 0 25 25" fill="none" xmlns="http://www.w3.org/2000/svg">
<g clip-path="url(#clip0_341_7188)">
<path d="M13.9379 1.03822C13.7157 1.29237 13.4658 1.52328 13.1921 1.72668L13.1543 1.75483L13.1223 1.78957C12.7794 2.16255 12.3121 2.38733 11.7457 2.65972C11.7228 2.67074 11.6997 2.68183 11.6765 2.69302C11.3904 2.76972 11.1071 2.89378 10.8701 2.99753C10.7994 3.02851 10.7328 3.05767 10.6715 3.08323C10.5107 3.12499 10.3358 3.14537 10.1266 3.1639C10.0957 3.16664 10.0638 3.16935 10.031 3.17213C9.85949 3.18669 9.66336 3.20333 9.46878 3.23631C9.33589 3.23142 9.20465 3.23057 9.08029 3.23016C9.06265 3.2301 9.04517 3.23005 9.02784 3.23C8.90256 3.22965 8.7848 3.22931 8.66748 3.22591C8.4011 3.2182 8.16953 3.195 7.95725 3.13243L7.89225 3.11327L7.82449 3.11211C7.6128 3.10846 7.39711 3.04891 7.1532 2.94778C7.01587 2.89084 6.89693 2.83379 6.77227 2.77273C8.27655 1.82909 9.99295 1.24051 11.7847 1.06287C11.807 1.0608 11.8298 1.05873 11.853 1.05662C12.0069 1.0426 12.1791 1.02693 12.3525 1H13.6343C13.7385 1.01415 13.8395 1.02664 13.9379 1.03822Z" fill="#F7F9FC" stroke="#F7F9FC"/>
<path d="M15.838 1.3529C15.7742 1.43987 15.7127 1.52596 15.6533 1.60908C15.6064 1.67471 15.5609 1.73849 15.5165 1.79939C15.3015 2.09488 15.099 2.34843 14.8563 2.55472C14.8301 2.57643 14.7971 2.60223 14.7595 2.63165C14.6158 2.7439 14.4049 2.90871 14.2533 3.09898L14.2533 3.09893L14.2483 3.10541C14.2472 3.10664 14.2392 3.11488 14.2162 3.13092C14.1908 3.14856 14.1677 3.16239 14.1313 3.18414C14.1157 3.19348 14.0977 3.20429 14.0759 3.21749C13.9973 3.26524 13.8641 3.34637 13.7478 3.48229C13.5831 3.54941 13.4604 3.6456 13.3807 3.70918C13.3695 3.71813 13.3589 3.72653 13.349 3.73443C13.2335 3.8267 13.204 3.8502 13.1663 3.86434L13.1519 3.86974L13.1379 3.87603C12.9596 3.95572 12.7918 4.03488 12.6298 4.11132C12.2322 4.29888 11.8693 4.47003 11.4731 4.59222C11.2479 4.6232 11.023 4.67046 10.8193 4.71329C10.7608 4.72558 10.7041 4.73751 10.6495 4.74858C10.3799 4.80334 10.1413 4.84296 9.90589 4.84548L9.84124 4.84617L9.7789 4.86328C9.48338 4.94439 9.16869 4.94888 8.81275 4.91637C8.63449 4.90009 8.45404 4.87547 8.26153 4.84889L8.24393 4.84646C8.07178 4.82269 7.8894 4.79751 7.70591 4.7791C7.5256 4.73537 7.35616 4.69864 7.1939 4.66348C6.84269 4.58737 6.52514 4.51855 6.20392 4.4017C6.01616 4.30349 5.81394 4.21556 5.63276 4.13677C5.5646 4.10713 5.49942 4.07879 5.4391 4.05168C5.35817 4.01531 5.28176 3.97948 5.20954 3.943C5.34964 3.819 5.49295 3.69848 5.63936 3.58155C5.69187 3.5727 5.73808 3.56063 5.77629 3.54929C5.82129 3.53594 5.86276 3.52115 5.89391 3.50988C5.90233 3.50683 5.90989 3.50408 5.91681 3.50156C5.93076 3.49648 5.94213 3.49235 5.95278 3.48859C6.02999 3.524 6.12132 3.56853 6.21936 3.61634C6.39525 3.7021 6.59277 3.79841 6.7692 3.87153C7.05303 3.98916 7.37763 4.09234 7.73811 4.1097C8.04946 4.19322 8.35705 4.21734 8.63783 4.22547C8.7692 4.22928 8.90094 4.22964 9.02493 4.22998C9.04221 4.23003 9.05934 4.23008 9.07629 4.23013C9.21799 4.2306 9.35019 4.23167 9.47911 4.23758L9.5371 4.24024L9.59417 4.22954C9.75397 4.19957 9.91508 4.18573 10.1049 4.16942C10.1401 4.1664 10.1763 4.16329 10.2136 4.15998C10.4395 4.13995 10.7014 4.11262 10.9654 4.03949L10.9938 4.03161L11.0212 4.02043C11.1399 3.97185 11.2455 3.92562 11.3437 3.88267C11.5682 3.78435 11.7537 3.70318 11.9682 3.65028L12.0186 3.63784L12.0655 3.61529C12.1108 3.59344 12.1573 3.57128 12.2046 3.54868C12.7221 3.30179 13.3478 3.00332 13.8248 2.50167C14.2784 2.15887 14.6779 1.75236 15.0103 1.29527C15.0182 1.29551 15.0268 1.29581 15.036 1.29618C15.0416 1.2964 15.0478 1.29669 15.0545 1.297C15.1326 1.30058 15.2825 1.30746 15.4473 1.26402C15.5782 1.29108 15.7085 1.32071 15.838 1.3529Z" fill="#F7F9FC" stroke="#F7F9FC"/>
<path d="M16.5979 1.19629C16.7591 1.21776 16.9221 1.2231 17.0844 1.21223C17.6927 1.42332 18.2813 1.68523 18.8436 1.99504C18.7549 2.0527 18.6517 2.0991 18.586 2.18254C18.0271 3.25785 17.1516 4.12926 16.3062 4.98941C16.3494 5.02691 16.3926 5.06488 16.4372 5.10145C14.936 4.97254 13.4378 5.62785 12.4461 6.71723C12.2254 6.70176 12.1492 6.93754 12.0086 7.05707C11.8354 7.24457 11.5533 7.15785 11.3321 7.23473C10.3966 7.5216 9.4069 7.49113 8.43828 7.4916C7.97052 7.39785 7.49172 7.37441 7.02205 7.29473C6.54229 7.11801 6.00737 7.12973 5.53865 6.91973C4.70196 6.6141 3.91037 6.1941 3.14276 5.7502C3.03578 5.87207 2.91968 5.9916 2.76855 6.06145C3.25998 5.28075 3.84387 4.55937 4.50814 3.91223C4.50814 3.97223 4.50814 4.03176 4.50814 4.09176C4.94951 4.44004 5.50698 4.5952 6.00017 4.85957C6.52454 5.05598 7.08249 5.14082 7.62414 5.27676C8.38262 5.3466 9.15935 5.55801 9.91352 5.34895C10.4835 5.34285 11.0217 5.1577 11.5816 5.08598C12.1962 4.89848 12.7613 4.59473 13.3442 4.33598C13.611 4.23566 13.7683 3.95816 14.0639 3.9141C14.1766 3.66426 14.487 3.62207 14.6468 3.41395C14.7945 3.22645 14.9975 3.09332 15.1802 2.94098C15.7631 2.44645 16.1062 1.76301 16.5998 1.19863L16.5979 1.19629Z" fill="#F7F9FC"/>
<path d="M18.8434 1.99463C19.5062 2.35988 20.1326 2.78485 20.7144 3.264C20.4434 3.46557 20.2001 3.71213 20.086 4.03275C19.7852 4.46213 19.4844 4.89947 19.0986 5.26322C18.7784 5.69188 18.4247 6.09573 18.0408 6.47119L17.987 6.38869C17.8316 6.64744 17.526 6.759 17.3456 6.99525C17.124 7.30416 16.697 7.36088 16.4461 7.63979C16.3381 7.7551 16.2019 7.92525 16.0201 7.84229C15.8934 7.70775 15.8162 7.53854 15.7121 7.38854L15.6967 7.49682C15.3964 6.6465 15.773 5.67666 16.4912 5.14369L16.435 5.10104C16.3904 5.06447 16.3473 5.0265 16.3041 4.989C17.1513 4.12885 18.0269 3.25744 18.5858 2.18213C18.6529 2.09869 18.7547 2.05229 18.8434 1.99463Z" fill="#F7F9FC"/>
<path d="M20.7169 3.26562C21.2938 3.74253 21.8239 4.27108 22.3001 4.84438C21.8487 4.86641 21.745 5.36 21.4845 5.63375C21.1765 5.93703 21.0494 6.37719 20.6934 6.63922C20.5241 6.75828 20.4497 6.95516 20.313 7.10047C20.0525 7.26875 19.8879 7.53453 19.6471 7.72531C19.1299 8.28781 18.5033 8.74625 17.8566 9.15922C17.6374 9.31109 17.4493 9.50703 17.2008 9.61531C17.0156 9.45031 16.8611 9.24969 16.6409 9.12594C16.2571 8.62672 15.8992 8.09469 15.6973 7.49844L15.7126 7.39062C15.8167 7.54063 15.894 7.70984 16.0206 7.84437C16.2024 7.92734 16.3387 7.75719 16.4466 7.64188C16.6976 7.36297 17.1245 7.30625 17.3462 6.99734C17.5266 6.76297 17.8322 6.64953 17.9876 6.39078L18.0413 6.47328C18.4252 6.09782 18.7789 5.69397 19.0992 5.26531C19.483 4.90156 19.7857 4.46422 20.0865 4.03484C20.2007 3.71422 20.4439 3.46766 20.715 3.26609L20.7169 3.26562Z" fill="#F7F9FC"/>
<path d="M21.4861 5.63215C21.7466 5.36027 21.8503 4.8648 22.3017 4.84277C22.8434 5.49659 23.3115 6.20552 23.6978 6.9573C23.6052 6.87293 23.5059 6.7984 23.4042 6.72293C22.7915 7.40121 22.3147 8.19199 21.6444 8.82012L21.5792 8.72121C21.5466 8.82059 21.5178 8.92699 21.4391 9.00246C20.8327 9.65121 20.0958 10.1598 19.4045 10.7162C19.0902 10.9632 18.7122 11.1264 18.4488 11.4348C18.278 11.214 18.1485 10.9468 17.888 10.8109C17.5071 10.2245 17.0508 9.69059 16.6406 9.1234C16.8608 9.24715 17.0153 9.44777 17.2005 9.61277C17.449 9.50449 17.6371 9.30855 17.8563 9.15668C18.503 8.74371 19.1296 8.28668 19.6468 7.72277C19.8866 7.53199 20.0521 7.26621 20.3127 7.09793C20.4494 6.95262 20.5237 6.75574 20.6931 6.63668C21.0491 6.37465 21.1762 5.93355 21.4842 5.63121L21.4861 5.63215Z" fill="#F7F9FC"/>
<path d="M12.4456 6.71683C13.4372 5.62746 14.9355 4.97215 16.4366 5.10105L16.4928 5.14371C15.7731 5.67668 15.398 6.64652 15.6983 7.49683C15.9003 8.09215 16.2596 8.62512 16.642 9.12433C17.0503 9.69152 17.5055 10.2254 17.8893 10.8118C18.2283 11.3604 18.5001 11.946 18.6992 12.5565C18.927 13.3534 19.0264 14.1882 18.9179 15.01C18.8344 15.6447 18.6292 16.2584 18.313 16.8189C17.5031 18.1623 16.1234 19.1228 14.6155 19.5887C12.4801 20.2614 10.0343 19.8414 8.25542 18.5064C7.75839 18.0967 7.23258 17.6757 6.91211 17.1142C7.16158 17.1512 7.37267 17.2951 7.60967 17.3701C8.70015 17.7231 9.97773 17.53 10.8638 16.8006C11.4906 16.3119 11.9219 15.6238 12.0824 14.8562C12.2321 14.1531 12.1203 13.4228 11.9145 12.7417C11.7346 12.0854 11.4803 11.4531 11.3469 10.787C11.2352 10.1629 11.2394 9.52428 11.3594 8.90168C11.5295 8.0959 11.9038 7.34469 12.448 6.71683H12.4456Z" fill="#0391CC"/>
<path d="M2.76959 6.0593C2.92071 5.98945 3.03681 5.8718 3.14379 5.74805C3.9114 6.19383 4.70155 6.61383 5.53824 6.91992C6.00696 7.12898 6.54092 7.11727 7.02164 7.29492C7.49132 7.37461 7.97011 7.39852 8.43787 7.4918C9.40649 7.4918 10.3962 7.5218 11.3317 7.23492C11.5529 7.15805 11.835 7.24336 12.0082 7.05727C12.1488 6.93773 12.225 6.70195 12.4457 6.71742C11.9015 7.34528 11.5273 8.09649 11.3572 8.90227C11.3485 8.86148 11.3322 8.78039 11.3236 8.73961C11.2513 8.91661 11.189 9.09735 11.137 9.28102C10.3694 9.4868 9.57105 9.45539 8.78617 9.4657C7.78636 9.40852 6.76737 9.33023 5.82034 8.9993C4.92464 8.82117 4.07308 8.46586 3.25222 8.07914C2.92551 7.85227 2.51772 7.73555 2.25577 7.4257C2.12144 7.54664 2.0111 7.69195 1.86621 7.8007C2.11133 7.19408 2.41376 6.61109 2.76959 6.0593Z" fill="#F7F9FC"/>
<path d="M21.6442 8.82082C22.3158 8.19269 22.7912 7.40191 23.4039 6.72363C23.5042 6.79863 23.6049 6.87316 23.6975 6.95801C24.0173 7.57207 24.2768 8.2143 24.4728 8.87613C24.3839 8.80616 24.2987 8.73184 24.2176 8.65348C23.7858 8.94363 23.6658 9.49723 23.2043 9.7466C22.4314 10.5219 21.6576 11.3047 20.7633 11.9497C20.2121 12.2577 19.7607 12.7175 19.1873 12.9904C18.8798 13.1197 18.9345 12.6369 18.6975 12.5577C18.4985 11.947 18.2267 11.3613 17.8877 10.8125C18.1482 10.9485 18.2777 11.2157 18.4485 11.4364C18.7119 11.128 19.09 10.9649 19.4042 10.7179C20.0955 10.1614 20.8324 9.65285 21.4388 9.0041C21.5175 8.92816 21.5463 8.82176 21.5789 8.72285L21.6442 8.82176V8.82082Z" fill="#F7F9FC"/>
<path d="M1.86417 7.80078C2.0081 7.69156 2.1194 7.54625 2.25373 7.42578C2.51567 7.73563 2.92538 7.85234 3.25018 8.07922C4.07103 8.46594 4.92259 8.82125 5.81829 8.99938C6.76533 9.33031 7.78528 9.40859 8.78413 9.46578C9.57092 9.45547 10.3673 9.48688 11.1349 9.28109C11.1869 9.09743 11.2492 8.91668 11.3215 8.73969C11.3302 8.78047 11.3465 8.86156 11.3551 8.90234C11.2351 9.52495 11.2309 10.1636 11.3426 10.7877C11.3182 10.9822 11.2918 11.1763 11.2788 11.3722C10.2152 11.6 9.11995 11.5358 8.04243 11.5306C7.44034 11.3502 6.78116 11.5048 6.19826 11.2456C5.54531 11.1388 4.88997 10.9906 4.27925 10.7328C3.53563 10.5181 2.79153 10.25 2.14914 9.81359C1.9203 9.70297 1.6574 9.65797 1.46214 9.48547C1.40409 9.61813 1.34508 9.75078 1.28175 9.88156L1.25488 9.72125C1.39491 9.06314 1.59893 8.41959 1.86417 7.79938V7.80078Z" fill="#F7F9FC"/>
<path d="M23.2041 9.74596C23.6656 9.49564 23.7865 8.94299 24.2173 8.65283C24.2985 8.7312 24.3837 8.80551 24.4725 8.87549C24.6772 9.53465 24.8176 10.2113 24.8918 10.8963C24.8789 10.9652 24.865 11.0336 24.8506 11.1025C24.7978 11.0116 24.7465 10.9206 24.6956 10.8292C24.509 10.991 24.3238 11.1574 24.1967 11.3702C23.9913 11.703 23.6042 11.8516 23.3513 12.1394C23.1172 12.3785 22.8236 12.5571 22.602 12.8069C22.3741 13.0839 22.0028 13.1842 21.7475 13.4317C21.5903 13.5824 21.4106 13.7088 21.2145 13.8067C21.025 13.9005 20.9401 14.1288 20.7319 14.1925C20.5237 14.2563 20.3822 14.448 20.1744 14.5206C19.794 14.6486 19.5359 14.973 19.1636 15.1188C19.0815 15.0799 18.9981 15.0447 18.916 15.0072C19.0245 14.1855 18.9251 13.3488 18.6973 12.5538C18.9343 12.633 18.8796 13.1163 19.1871 12.9864C19.7604 12.7136 20.2118 12.2538 20.7631 11.9458C21.6573 11.3013 22.4312 10.5185 23.2041 9.74268V9.74596Z" fill="#F7F9FC"/>
<path d="M1.46308 9.48576C1.65834 9.65779 1.92125 9.70279 2.15009 9.81389C2.79248 10.2489 3.53657 10.517 4.28259 10.7326C4.89284 10.9904 5.54818 11.1386 6.2016 11.2454C6.7845 11.5047 7.44368 11.35 8.04577 11.5304C9.12474 11.5356 10.2186 11.5998 11.2822 11.372C11.2951 11.1761 11.3215 10.982 11.346 10.7875C11.4794 11.4536 11.7336 12.0878 11.9135 12.7422C11.8061 12.9794 11.9385 13.2344 11.9241 13.4814C10.9761 13.5179 10.042 13.7158 9.09067 13.7069C8.79659 13.7584 8.50586 13.7125 8.22184 13.6375C7.86395 13.6937 7.519 13.5686 7.16351 13.5545C6.65449 13.5311 6.15267 13.4289 5.6566 13.3253C5.41673 13.3253 5.19892 13.2189 4.97439 13.15C4.57716 13.0112 4.13674 13.0478 3.7659 12.8279C2.8179 12.5725 1.95675 12.1047 1.05481 11.7283C1.03658 11.5979 1.01931 11.4667 1.00684 11.3354C1.05089 10.7921 1.13263 10.2522 1.25151 9.71967L1.27838 9.87998C1.3417 9.7492 1.40071 9.61654 1.45876 9.48389L1.46308 9.48576Z" fill="#F7F9FC"/>
<path d="M24.1975 11.3705C24.3246 11.1577 24.5098 10.9913 24.6964 10.8296C24.7473 10.921 24.7986 11.0119 24.8514 11.1029C24.8658 11.034 24.8797 10.9655 24.8926 10.8966C25.0115 11.9206 24.9897 12.9556 24.8279 13.974C24.7976 13.7766 24.7549 13.5812 24.7175 13.3852C24.291 13.5516 24.0977 14.0026 23.7004 14.213C22.7275 15.0235 21.6298 15.6662 20.5821 16.3768C20.1829 16.5816 19.7367 16.7002 19.376 16.9744C18.9202 17.2283 18.4417 17.441 17.9463 17.6096C18.0422 17.333 18.3478 17.1347 18.3119 16.8197C18.6281 16.2593 18.8333 15.6456 18.9168 15.0108C18.9989 15.0483 19.0823 15.0835 19.1644 15.1224C19.5367 14.9766 19.7948 14.6537 20.1752 14.5243C20.383 14.4497 20.5235 14.2646 20.7327 14.1962C20.9419 14.1277 21.0258 13.9051 21.2153 13.8104C21.4114 13.7124 21.5911 13.586 21.7483 13.4354C22.0036 13.1879 22.3749 13.0876 22.6028 12.8105C22.8263 12.5607 23.118 12.3821 23.3521 12.143C23.605 11.8552 23.9921 11.7066 24.1975 11.3738V11.3705Z" fill="#F7F9FC"/>
<path d="M1.12758 14.0196C0.988394 13.1324 0.94914 12.233 1.01052 11.3374C1.02155 11.4687 1.03883 11.5999 1.0585 11.7302C1.96043 12.1052 2.82159 12.574 3.76958 12.8299C4.13851 13.0479 4.57892 13.0113 4.97472 13.1496C5.19924 13.2185 5.41561 13.3268 5.65693 13.3249C6.15299 13.4285 6.65481 13.5307 7.16383 13.5541C7.51933 13.5682 7.86427 13.6947 8.22217 13.6371C8.50618 13.7121 8.79787 13.758 9.091 13.7065C10.0424 13.7154 10.9764 13.519 11.9244 13.481C11.9388 13.234 11.8064 12.979 11.9139 12.7418C12.1197 13.4229 12.2315 14.1527 12.0818 14.8563C12.0703 14.786 12.0583 14.7157 12.0448 14.6472C11.9623 14.8404 11.9393 15.0724 11.7867 15.2271C11.4965 15.341 11.1722 15.3208 10.8656 15.3583C9.34383 15.5754 7.80142 15.3987 6.28157 15.2524C4.5794 14.9866 2.9065 14.5263 1.34011 13.8185C1.26815 13.886 1.19666 13.953 1.12758 14.0196Z" fill="#F7F9FC"/>
<path d="M23.7001 14.2126C24.0974 14.0021 24.2907 13.5512 24.7172 13.3848C24.7546 13.5807 24.7973 13.7762 24.8276 13.9735C24.6811 14.9447 24.4045 15.8929 24.0048 16.7935C24.0019 16.6557 23.9923 16.5188 23.9856 16.3815C23.3111 16.689 22.8102 17.2515 22.1462 17.5735C21.8315 17.8154 21.4746 17.9916 21.1152 18.1571C20.5265 18.5169 19.904 18.8211 19.2562 19.0655C18.738 19.3215 18.2007 19.5343 17.6634 19.7452C17.4633 19.7898 17.2566 19.8207 17.081 19.9327C16.8541 20.0734 16.5715 19.9998 16.333 20.0987C15.9612 20.3077 15.529 20.3602 15.1293 20.5009C14.4337 20.5309 13.7976 20.8759 13.1009 20.8759C12.5488 21.0043 11.9807 21.0343 11.4247 21.1384C9.58532 21.1876 7.74211 21.2499 5.90753 21.0343C5.6595 20.9837 5.36733 20.8641 5.15912 21.0751C4.30007 20.3549 3.54979 19.5194 2.93066 18.5935C3.34181 18.3488 3.75584 18.6962 4.16603 18.7566C4.63091 18.8035 5.08907 18.9043 5.55731 18.9348C5.77608 19.051 6.01692 19.0693 6.26207 19.0552C6.83777 19.1626 7.42307 19.2301 8.00789 19.1809C8.35091 19.2085 8.69538 19.2568 9.03888 19.1912C8.77454 18.9723 8.3797 18.848 8.25592 18.5059C10.0348 19.8409 12.4806 20.2609 14.616 19.5882C16.1239 19.1223 17.5036 18.1618 18.3135 16.8184C18.3494 17.1334 18.0434 17.3316 17.9479 17.6082C18.4436 17.4398 18.9225 17.2273 19.3785 16.9735C19.7393 16.6993 20.1855 16.5807 20.5846 16.3759C21.6314 15.6657 22.7291 15.0226 23.703 14.2121L23.7001 14.2126Z" fill="#F7F9FC"/>
<path d="M1.12793 14.0195C1.19749 13.952 1.26898 13.8859 1.33806 13.8184C2.90589 14.5262 4.57879 14.9865 6.27952 15.2523C7.79938 15.3985 9.34178 15.5752 10.8636 15.3582C11.1701 15.3198 11.4944 15.3409 11.7847 15.227C11.9372 15.0723 11.9603 14.8402 12.0428 14.6471C12.0562 14.7165 12.0682 14.7877 12.0797 14.8562C11.9192 15.6238 11.4879 16.3119 10.8612 16.8005C10.5767 16.8052 10.3689 17.0223 10.1127 17.1109C9.77692 17.2716 9.40367 17.1713 9.05009 17.2159C8.71139 17.2627 8.37268 17.191 8.03302 17.2116C7.73461 17.2257 7.45251 17.1179 7.16946 17.0443C7.00299 16.9932 6.84131 17.1024 6.6734 17.0738C6.36156 17.0195 6.03964 17.034 5.73548 16.9393C5.35168 16.8254 4.94293 16.8507 4.56152 16.7321C4.01892 16.5545 3.43458 16.516 2.90925 16.2845C2.53265 16.1598 2.15604 16.0271 1.76792 15.9404C1.78855 16.0384 1.80774 16.1363 1.82885 16.2348L1.75161 16.3252C1.46346 15.5795 1.25447 14.8069 1.12793 14.0195Z" fill="#F7F9FC"/>
<path d="M1.76825 15.9404C2.15637 16.0271 2.53297 16.1598 2.90958 16.2845C3.43731 16.5161 4.01925 16.5545 4.56185 16.7321C4.94565 16.8507 5.35296 16.8259 5.7358 16.9393C6.03997 17.0331 6.35948 17.0195 6.67372 17.0739C6.84164 17.1025 7.00331 16.9932 7.16979 17.0443C7.45284 17.1198 7.73494 17.2257 8.03334 17.2117C8.37301 17.1911 8.71171 17.2618 9.05042 17.2159C9.404 17.1714 9.77964 17.2717 10.1131 17.1109C10.3693 17.0223 10.577 16.8053 10.8615 16.8006C9.97538 17.53 8.6978 17.7231 7.60732 17.3701C7.37032 17.2951 7.15923 17.1512 6.90976 17.1142C7.23072 17.6767 7.75652 18.0986 8.25307 18.5064C8.37684 18.8486 8.77168 18.9728 9.03603 19.1917C8.69252 19.2573 8.34806 19.209 8.00504 19.1814C7.42022 19.2282 6.83252 19.1631 6.25922 19.0557C6.01406 19.0698 5.77323 19.0515 5.55446 18.9353C5.08814 18.9048 4.62997 18.8045 4.16317 18.7571C3.75299 18.6967 3.33896 18.3493 2.92781 18.594C2.45214 17.8819 2.05753 17.1211 1.75098 16.3253L1.8311 16.2348C1.80999 16.1364 1.7908 16.0384 1.77017 15.9404H1.76825Z" fill="#F7F9FC"/>
<path d="M22.1463 17.5739C22.8103 17.2518 23.3111 16.6893 23.9857 16.3818C23.9924 16.5192 24.002 16.6561 24.0049 16.7939C23.2642 18.4892 22.1236 19.9894 20.6763 21.172C20.6658 21.4434 20.6572 21.7148 20.6548 21.9867C20.5919 21.6853 20.5324 21.3773 20.5631 21.0703C20.1313 21.2081 19.7725 21.5039 19.3254 21.5943C18.9895 21.6782 18.6878 21.8512 18.387 22.0129L18.2843 21.9745C18.0924 22.1212 17.8554 22.1662 17.6242 22.215C17.3478 22.3036 17.0772 22.4146 16.7875 22.4559C16.7702 22.4761 16.7534 22.4962 16.7371 22.5168C16.4489 22.5877 16.1572 22.6437 15.863 22.6846C15.1568 22.9659 14.3988 23.0943 13.6465 23.1979C13.2805 23.3259 12.8837 23.2448 12.5177 23.3709C12.2629 23.4609 11.9899 23.3521 11.7357 23.4417C11.383 23.542 10.9067 23.3357 10.6543 23.6803C8.62331 23.2919 6.73043 22.3946 5.16113 21.0764C5.36935 20.8654 5.66152 20.985 5.90955 21.0356C7.7422 21.2512 9.58542 21.1889 11.4267 21.1396C11.9827 21.0356 12.5508 21.0056 13.103 20.8771C13.7996 20.8771 14.4357 20.5336 15.1314 20.5021C15.531 20.3615 15.9633 20.309 16.3351 20.1C16.5749 20.0011 16.8561 20.0732 17.083 19.934C17.2586 19.8215 17.4668 19.7906 17.6654 19.7465C18.2037 19.5375 18.7401 19.3246 19.2582 19.0668C19.906 18.8224 20.5285 18.5182 21.1172 18.1584C21.4775 17.9929 21.8335 17.8167 22.1482 17.5748L22.1463 17.5739Z" fill="#F7F9FC"/>
<path d="M19.3254 21.5939C19.7725 21.5034 20.1333 21.2076 20.5631 21.0698C20.5324 21.3787 20.5919 21.6848 20.6548 21.9862C20.6749 22.7634 20.6653 23.5415 20.6586 24.3192C20.6259 24.382 20.5894 24.4429 20.5492 24.5015H20.3573C19.4127 24.0206 18.4863 23.504 17.5436 23.0198C15.364 23.8962 12.9685 24.1258 10.6562 23.6798C10.9086 23.3353 11.385 23.5392 11.7376 23.4412C11.9924 23.3517 12.2653 23.4604 12.5196 23.3704C12.8857 23.2448 13.2824 23.3236 13.6485 23.1975C14.4007 23.0939 15.1587 22.9659 15.8649 22.6842C16.1591 22.6433 16.4509 22.5873 16.739 22.5164C16.7553 22.4958 16.7721 22.4756 16.7894 22.4554C17.0773 22.4142 17.3498 22.3031 17.6261 22.2145C17.8573 22.1676 18.0958 22.1208 18.2862 21.974L18.3889 22.0125C18.6897 21.8508 18.992 21.6778 19.3273 21.5939H19.3254Z" fill="#F7F9FC"/>
<path d="M20.6533 21.9846C20.6557 21.7127 20.6644 21.4413 20.6749 21.1699C20.6816 22.2185 20.7104 23.2713 20.6572 24.3176C20.6639 23.5399 20.6735 22.7618 20.6533 21.9846Z" fill="#F7F9FC"/>
</g>
<defs>
<clipPath id="clip0_341_7188">
<rect width="23.9833" height="24" fill="white" transform="translate(0.983398 0.5)"/>
</clipPath>
</defs>
</svg>
