<svg width="25" height="25" viewBox="0 0 25 25" fill="none" xmlns="http://www.w3.org/2000/svg">
    <path d="M22.432 11.94C22.745 17.272 18.296 22 12.948 22a9.442 9.442 0 0 1-4.803-1.301l-.182-.107-.204.056-3.258.9-.004.001a.496.496 0 0 1-.609-.61l.89-3.31.053-.2-.104-.179a9.524 9.524 0 0 1-1.148-6.273c.617-3.967 3.798-7.189 7.762-7.844a9.5 9.5 0 0 1 11.091 8.806zm-4.15 4.503.005-.01.005-.01a2.798 2.798 0 0 0 .143-.413c.019-.063.033-.113.051-.164l.029-.08v-.086c0-.22-.05-.402-.114-.57l-.008-.022-.011-.021a1.342 1.342 0 0 0-.44-.506l-1.651-1.175a2.321 2.321 0 0 0-.438-.251 1.18 1.18 0 0 0-1.122.06 2.108 2.108 0 0 0-.468.361l-.285.286a3.706 3.706 0 0 1-.496-.363 12.973 12.973 0 0 1-1.475-1.476 4.387 4.387 0 0 1-.371-.487l.282-.297c.148-.15.262-.302.353-.457.1-.172.178-.379.178-.612 0-.168-.034-.332-.107-.5a2.142 2.142 0 0 0-.252-.445l-.003-.004-1.157-1.638a1.328 1.328 0 0 0-.54-.447 1.476 1.476 0 0 0-.62-.136c-.518 0-.988.214-1.386.61a2.73 2.73 0 0 0-.698 1.017 3.115 3.115 0 0 0-.214 1.153c0 .597.137 1.213.399 1.834a9.3 9.3 0 0 0 1.034 1.808l.003.004c.432.587.908 1.157 1.448 1.697l.004.004c.533.523 1.091 1.01 1.695 1.448h.002a9.652 9.652 0 0 0 1.81 1.043c.624.274 1.241.412 1.83.412.404 0 .8-.07 1.171-.229.38-.153.708-.402.994-.711l.01-.01c.17-.196.303-.403.41-.617z" fill="#F7F9FC" stroke="#F7F9FC"/>
</svg>
