<svg width="223" height="51" viewBox="0 0 223 51" fill="none" xmlns="http://www.w3.org/2000/svg">
<path d="M5.72063 30.9062C5.26229 31.8854 4.79875 32.8802 4.33 33.8906C3.87167 34.8906 3.49146 35.849 3.18938 36.7656C2.51229 38.8073 2.23104 40.4167 2.34563 41.5938C2.43938 42.8333 2.92896 43.8177 3.81438 44.5469C4.71021 45.276 5.98625 45.6406 7.6425 45.6406C9.0175 45.6406 10.3456 45.349 11.6269 44.7656C12.5852 44.3385 13.4342 43.8125 14.1738 43.1875C14.9133 42.5625 15.481 41.9167 15.8769 41.25C16.2831 40.5833 16.4863 40.0208 16.4863 39.5625C16.4967 39.3542 16.3925 39.1771 16.1738 39.0312C15.9654 38.8854 15.7102 38.7604 15.4081 38.6562C15.106 38.5521 14.7935 38.4583 14.4706 38.375C14.1477 38.2917 13.8873 38.2083 13.6894 38.125C13.2102 37.9479 12.8196 37.6875 12.5175 37.3438C12.2258 36.9896 12.0852 36.4635 12.0956 35.7656C12.0956 34.9323 12.3717 33.9479 12.9238 32.8125C13.0279 32.6771 13.1373 32.5781 13.2519 32.5156C13.3665 32.4531 13.4706 32.4271 13.5644 32.4375C13.6685 32.4479 13.7571 32.4844 13.83 32.5469C13.9133 32.6094 13.9706 32.6979 14.0019 32.8125C13.9706 32.9688 14.0696 33.125 14.2988 33.2812C14.5383 33.4375 14.9758 33.6302 15.6113 33.8594C16.2571 34.0885 16.6581 34.2656 16.8144 34.3906C17.3248 34.7344 17.58 35.3698 17.58 36.2969C17.58 37.6927 17.304 39.2969 16.7519 41.1094C16.2102 42.9115 15.455 44.4792 14.4863 45.8125C14.08 46.4271 13.58 47.0365 12.9863 47.6406C12.3925 48.2448 11.7467 48.75 11.0488 49.1562C9.705 50.0833 8.15813 50.5469 6.40813 50.5469C4.41854 50.5156 2.90813 49.8646 1.87688 48.5938C1.40813 47.9479 1.08521 47.2604 0.908127 46.5312C0.731043 45.8125 0.642502 45.125 0.642502 44.4688C0.673752 43.2812 0.830002 42.0885 1.11125 40.8906C1.3925 39.6927 1.75188 38.5104 2.18938 37.3438C2.62688 36.1771 3.12167 35.0365 3.67375 33.9219C4.23625 32.8073 4.80917 31.7396 5.3925 30.7188C5.48625 30.5625 5.53834 30.474 5.54875 30.4531C5.67375 30.2552 5.78313 30.1771 5.87688 30.2188H5.8925C5.92375 30.25 5.92375 30.3125 5.8925 30.4062C5.87167 30.5 5.81438 30.6667 5.72063 30.9062ZM57.4163 21.9062C57.5621 21.8854 57.6767 21.9375 57.76 22.0625C57.8433 22.1875 57.7965 22.375 57.6194 22.625C57.3798 23.0208 57.1558 23.401 56.9475 23.7656C56.7392 24.1302 56.5152 24.4948 56.2756 24.8594C56.161 25.099 56.036 25.2865 55.9006 25.4219C55.7652 25.5573 55.6246 25.6667 55.4788 25.75C55.3329 25.8229 55.1767 25.8854 55.01 25.9375C54.8538 25.9792 54.6923 26.0208 54.5256 26.0625C54.0465 26.1979 53.5777 26.3854 53.1194 26.625C52.6715 26.8542 52.2496 27.0938 51.8538 27.3438C51.3329 27.6771 50.8121 28.0208 50.2913 28.375C49.7808 28.7188 49.2444 29.0729 48.6819 29.4375C47.5673 30.1771 46.4058 30.9375 45.1975 31.7188C43.9996 32.5 42.7444 33.2812 41.4319 34.0625C40.1298 34.8333 38.7704 35.5938 37.3538 36.3438C35.9371 37.0833 34.4631 37.7865 32.9319 38.4531C31.4006 39.1094 29.8225 39.7135 28.1975 40.2656C26.5829 40.8073 24.885 41.2969 23.1038 41.7344C21.3225 42.1719 19.4735 42.4948 17.5569 42.7031C15.6402 42.9115 13.6663 43.0104 11.635 43C11.7183 42.4896 11.7756 41.9896 11.8069 41.5C11.8381 41.0104 11.911 40.5521 12.0256 40.125C12.1298 39.6875 12.3069 39.2865 12.5569 38.9219C12.7965 38.5573 13.1767 38.2396 13.6975 37.9688C16.4579 38.0104 19.1558 37.8177 21.7913 37.3906C24.4267 36.9635 26.9996 36.3542 29.51 35.5625C32.0308 34.7604 34.4944 33.8021 36.9006 32.6875C39.3173 31.5729 41.6923 30.349 44.0256 29.0156C45.5048 28.1719 46.9735 27.3333 48.4319 26.5C49.8902 25.6667 51.3642 24.8333 52.8538 24C53.1975 23.8125 53.5621 23.6146 53.9475 23.4062C54.3329 23.1979 54.7183 23 55.1038 22.8125C55.4996 22.625 55.8902 22.4531 56.2756 22.2969C56.6715 22.1302 57.0517 22 57.4163 21.9062ZM62.7056 41.3594C61.9452 42.3177 61.1275 42.9219 60.2525 43.1719C59.3046 43.401 58.2785 43.6094 57.1744 43.7969C56.966 43.8073 56.8098 43.7865 56.7056 43.7344C56.591 43.6927 56.69 43.5625 57.0025 43.3438C58.2733 42.5938 59.4192 41.8542 60.44 41.125C61.4713 40.3854 62.315 39.6042 62.9713 38.7812C63.6275 37.9479 64.2317 36.9688 64.7838 35.8438C65.3358 34.7188 65.8358 33.6667 66.2838 32.6875C66.3983 32.4792 66.5285 32.4062 66.6744 32.4688C66.8202 32.5208 66.8306 32.7083 66.7056 33.0312C66.289 34.0208 66.0598 34.8229 66.0181 35.4375V35.4844C65.9244 35.7656 65.8619 35.9427 65.8306 36.0156C65.4556 36.8594 65.065 37.6562 64.6588 38.4062C63.7838 39.875 63.1327 40.8594 62.7056 41.3594ZM63.6044 39.6562C63.6356 38.2396 64.3388 36.8333 65.7138 35.4375V35.4844C65.7138 35.9115 65.8127 36.2865 66.0106 36.6094C66.2085 36.9219 66.4585 37.1823 66.7606 37.3906C67.0731 37.599 67.4169 37.7552 67.7919 37.8594C68.1773 37.9531 68.5471 38 68.9013 38C69.4638 38 69.9481 37.9427 70.3544 37.8281C70.771 37.7031 71.1356 37.5521 71.4481 37.375C71.7606 37.1979 72.0367 37.0052 72.2763 36.7969C72.5158 36.5885 72.745 36.3906 72.9638 36.2031C73.1929 36.0156 73.4221 35.8594 73.6513 35.7344C73.8908 35.6094 74.1669 35.5365 74.4794 35.5156C74.6565 36.0365 74.7294 36.5469 74.6981 37.0469C74.6669 37.5469 74.594 38.0573 74.4794 38.5781C74.2294 38.4844 73.9846 38.4219 73.745 38.3906C73.5054 38.349 73.2502 38.3854 72.9794 38.5C72.719 38.6042 72.4325 38.8073 72.12 39.1094C71.8179 39.4115 71.4742 39.849 71.0888 40.4219C70.9221 40.6302 70.7138 40.8906 70.4638 41.2031C70.2242 41.5052 69.9273 41.7969 69.5731 42.0781C69.219 42.349 68.8127 42.5833 68.3544 42.7812C67.896 42.9688 67.3752 43.0469 66.7919 43.0156C66.1981 42.9844 65.7085 42.8594 65.3231 42.6406C64.9377 42.4219 64.6304 42.151 64.4013 41.8281C64.1617 41.5052 63.9846 41.151 63.87 40.7656C63.745 40.3802 63.6565 40.0104 63.6044 39.6562ZM72.0106 20.8438C72.094 21.1458 72.0888 21.4583 71.995 21.7812C71.9117 22.1042 71.7502 22.4427 71.5106 22.7969C71.3648 23.0365 71.2085 23.2552 71.0419 23.4531C70.8856 23.6406 70.719 23.8229 70.5419 24C70.4898 24.0625 70.4065 24.1406 70.2919 24.2344C70.1773 24.3281 70.0575 24.4167 69.9325 24.5C69.8075 24.5833 69.6877 24.6458 69.5731 24.6875C69.4585 24.7188 69.3752 24.7031 69.3231 24.6406C68.9481 24.3385 68.5783 24.0312 68.2138 23.7188C67.8492 23.4062 67.4481 23.1146 67.0106 22.8438C66.9377 22.7917 66.9013 22.7448 66.9013 22.7031C66.9117 22.651 66.9429 22.5781 66.995 22.4844L69.495 18.6719C69.5679 18.5677 69.6408 18.5208 69.7138 18.5312C69.7867 18.5312 69.8648 18.5573 69.9481 18.6094C70.1669 18.7344 70.3856 18.875 70.6044 19.0312C70.8231 19.1875 71.0263 19.3594 71.2138 19.5469C71.4013 19.724 71.5627 19.9219 71.6981 20.1406C71.844 20.349 71.9481 20.5833 72.0106 20.8438ZM83.9719 36L82.675 39.0312C82.6021 39.25 82.524 39.4531 82.4406 39.6406C82.3677 39.8281 82.2896 40.0052 82.2063 40.1719C82.0708 40.5365 81.8938 40.7188 81.675 40.7188C81.5813 40.7188 81.5188 40.6562 81.4875 40.5312C81.4563 40.4167 81.4719 40.2344 81.5344 39.9844C81.7219 39.2656 81.8521 38.7448 81.925 38.4219C82.0396 37.9531 82.0969 37.5 82.0969 37.0625C82.0969 36.6042 81.8938 36.1979 81.4875 35.8438C81.0604 35.5104 80.6229 35.3438 80.175 35.3438C79.6854 35.3438 79.2219 35.5 78.7844 35.8125C78.4406 36.1146 78.1281 36.4583 77.8469 36.8438C77.6906 37.0833 77.5292 37.3073 77.3625 37.5156C77.2063 37.724 77.0552 37.9219 76.9094 38.1094C76.4719 38.6615 76.0604 38.9375 75.675 38.9375C75.4354 38.9375 75.2271 38.8594 75.05 38.7031C74.8833 38.5469 74.5917 38.4531 74.175 38.4219C73.9042 38.3073 73.649 38.1562 73.4094 37.9688C73.1698 37.7917 72.9615 37.5365 72.7844 37.2031L73.7063 35.8594C73.9667 35.4844 74.2688 35.3594 74.6125 35.4844C74.9458 35.599 75.3156 35.7344 75.7219 35.8906C76.1385 36.0469 76.5188 36.099 76.8625 36.0469C77.2063 36.0365 77.701 35.5625 78.3469 34.625C78.7219 34.125 79.1125 33.6615 79.5188 33.2344C79.675 33.0677 79.9406 32.8802 80.3156 32.6719C80.6906 32.5052 81.0552 32.4219 81.4094 32.4219C81.8469 32.4219 82.2635 32.5833 82.6594 32.9062C83.0448 33.25 83.3885 33.6823 83.6906 34.2031C83.7531 34.3281 83.7844 34.4062 83.7844 34.4375C83.8885 34.6875 83.9563 34.8646 83.9875 34.9688C84.0083 35.0312 84.0188 35.2031 84.0188 35.4844C84.0188 35.5469 84.0188 35.6094 84.0188 35.6719C84.0188 35.724 84.0188 35.7656 84.0188 35.7969C84.0188 35.8698 84.0031 35.9375 83.9719 36ZM83.6675 36C83.1258 36.4167 82.5998 36.4167 82.0894 36C83.1102 34.1146 84.1988 32.5677 85.355 31.3594C85.2092 31.3906 85.0113 31.3854 84.7613 31.3438C84.4488 31.2917 84.1467 31.1667 83.855 30.9688C83.5425 30.7917 83.3863 30.5729 83.3863 30.3125C83.3863 29.9167 83.6258 29.2656 84.105 28.3594C84.5946 27.4531 84.98 26.8073 85.2613 26.4219C85.5113 26.1094 85.7144 25.9688 85.8706 26C86.8498 26.1042 87.5842 26.2292 88.0738 26.375C89.0738 26.6667 89.5738 27.0938 89.5738 27.6562C89.5738 28.1771 89.4644 28.6615 89.2456 29.1094C89.0373 29.5365 88.7873 29.9219 88.4956 30.2656C88.3394 30.4219 87.8654 30.8385 87.0738 31.5156C86.2821 32.1927 85.5269 33.0729 84.8081 34.1562C84.0894 35.2292 83.7092 35.8438 83.6675 36ZM100.809 37.0156C100.184 38.526 99.6577 39.6094 99.2306 40.2656C98.814 40.9219 98.4546 41.3698 98.1525 41.6094C97.8504 41.8385 97.4181 42.0521 96.8556 42.25C96.3035 42.4479 95.715 42.625 95.09 42.7812C94.465 42.9271 94.0015 43 93.6994 43C93.5744 43 93.5119 42.9948 93.5119 42.9844C93.4285 42.8802 93.8556 42.5312 94.7931 41.9375C95.741 41.3438 96.5223 40.8021 97.1369 40.3125C97.7515 39.8229 98.2983 39.2865 98.7775 38.7031C99.2671 38.1198 99.616 37.5104 99.8244 36.875C99.7098 36.9271 99.5692 36.9792 99.4025 37.0312C99.2358 37.0729 99.0588 37.1094 98.8713 37.1406C98.6942 37.1615 98.5223 37.1771 98.3556 37.1875C98.189 37.1979 98.0431 37.1927 97.9181 37.1719C97.3244 37.1302 96.8296 36.9323 96.4338 36.5781C96.0483 36.2135 95.866 35.7708 95.8869 35.25C95.9181 34.9896 95.991 34.6823 96.1056 34.3281C96.2202 33.974 96.4598 33.4167 96.8244 32.6562C97.189 31.8854 97.5848 31.25 98.0119 30.75C98.4494 30.25 98.8556 30 99.2306 30C99.8765 30 100.413 30.276 100.84 30.8281C101.267 31.3698 101.522 32.026 101.606 32.7969C101.626 33.1823 101.616 33.5677 101.574 33.9531C101.543 34.3385 101.496 34.6615 101.434 34.9219C101.382 35.1719 101.298 35.5 101.184 35.9062C101.069 36.3021 100.944 36.6719 100.809 37.0156ZM111.059 30.9062C110.601 31.8854 110.138 32.8802 109.669 33.8906C109.21 34.8906 108.83 35.849 108.528 36.7656C107.851 38.8073 107.57 40.4167 107.684 41.5938C107.778 42.8333 108.268 43.8177 109.153 44.5469C110.049 45.276 111.325 45.6406 112.981 45.6406C114.356 45.6406 115.684 45.349 116.966 44.7656C117.924 44.3385 118.773 43.8125 119.513 43.1875C120.252 42.5625 120.82 41.9167 121.216 41.25C121.622 40.5833 121.825 40.0208 121.825 39.5625C121.835 39.3542 121.731 39.1771 121.513 39.0312C121.304 38.8854 121.049 38.7604 120.747 38.6562C120.445 38.5521 120.132 38.4583 119.809 38.375C119.486 38.2917 119.226 38.2083 119.028 38.125C118.549 37.9479 118.158 37.6875 117.856 37.3438C117.565 36.9896 117.424 36.4635 117.434 35.7656C117.434 34.9323 117.71 33.9479 118.263 32.8125C118.367 32.6771 118.476 32.5781 118.591 32.5156C118.705 32.4531 118.809 32.4271 118.903 32.4375C119.007 32.4479 119.096 32.4844 119.169 32.5469C119.252 32.6094 119.309 32.6979 119.341 32.8125C119.309 32.9688 119.408 33.125 119.638 33.2812C119.877 33.4375 120.315 33.6302 120.95 33.8594C121.596 34.0885 121.997 34.2656 122.153 34.3906C122.664 34.7344 122.919 35.3698 122.919 36.2969C122.919 37.6927 122.643 39.2969 122.091 41.1094C121.549 42.9115 120.794 44.4792 119.825 45.8125C119.419 46.4271 118.919 47.0365 118.325 47.6406C117.731 48.2448 117.085 48.75 116.388 49.1562C115.044 50.0833 113.497 50.5469 111.747 50.5469C109.757 50.5156 108.247 49.8646 107.216 48.5938C106.747 47.9479 106.424 47.2604 106.247 46.5312C106.07 45.8125 105.981 45.125 105.981 44.4688C106.013 43.2812 106.169 42.0885 106.45 40.8906C106.731 39.6927 107.091 38.5104 107.528 37.3438C107.966 36.1771 108.46 35.0365 109.013 33.9219C109.575 32.8073 110.148 31.7396 110.731 30.7188C110.825 30.5625 110.877 30.474 110.888 30.4531C111.013 30.2552 111.122 30.1771 111.216 30.2188H111.231C111.263 30.25 111.263 30.3125 111.231 30.4062C111.21 30.5 111.153 30.6667 111.059 30.9062ZM159.255 25.3281C159.39 25.5677 159.479 25.8021 159.521 26.0312C159.573 26.25 159.588 26.474 159.568 26.7031C159.557 26.9219 159.521 27.1406 159.458 27.3594C159.396 27.5677 159.328 27.7812 159.255 28C159.036 27.8854 158.76 27.8646 158.427 27.9375C158.104 28.0104 157.739 28.1458 157.333 28.3438C156.927 28.5521 156.484 28.8073 156.005 29.1094C155.536 29.4115 155.041 29.7396 154.521 30.0938C154 30.4479 153.463 30.8073 152.911 31.1719C152.37 31.5469 151.823 31.9062 151.271 32.25C148.708 33.8333 146.047 35.276 143.286 36.5781C140.536 37.8802 137.719 38.9948 134.833 39.9219C131.948 40.849 129.005 41.5677 126.005 42.0781C123.015 42.599 120.005 42.8594 116.974 42.8594C116.953 42.0052 117.099 41.1615 117.411 40.3281C117.724 39.5052 118.265 38.6719 119.036 37.8281C121.984 37.8385 124.969 37.5938 127.989 37.0938C131.01 36.6042 133.989 35.9167 136.927 35.0312C139.875 34.1458 142.75 33.0938 145.552 31.875C148.354 30.6562 151.005 29.3333 153.505 27.9062C153.974 27.6354 154.479 27.3333 155.021 27C155.573 26.6562 156.114 26.3438 156.646 26.0625C157.177 25.7812 157.672 25.5677 158.13 25.4219C158.588 25.2656 158.963 25.2344 159.255 25.3281ZM144.505 16.8594C144.588 17.1615 144.583 17.474 144.489 17.7969C144.406 18.1198 144.245 18.4583 144.005 18.8125C143.859 19.0521 143.703 19.2708 143.536 19.4688C143.38 19.6562 143.213 19.8385 143.036 20.0156C142.984 20.0781 142.901 20.1562 142.786 20.25C142.672 20.3438 142.552 20.4323 142.427 20.5156C142.302 20.599 142.182 20.6615 142.068 20.7031C141.953 20.7344 141.87 20.7188 141.818 20.6562C141.443 20.3542 141.073 20.0469 140.708 19.7344C140.344 19.4219 139.943 19.1302 139.505 18.8594C139.432 18.8073 139.396 18.7604 139.396 18.7188C139.406 18.6667 139.437 18.5938 139.489 18.5L141.989 14.6875C142.062 14.5833 142.135 14.5365 142.208 14.5469C142.281 14.5469 142.359 14.5729 142.443 14.625C142.661 14.75 142.88 14.8906 143.099 15.0469C143.318 15.2031 143.521 15.375 143.708 15.5625C143.896 15.7396 144.057 15.9375 144.193 16.1562C144.338 16.3646 144.443 16.599 144.505 16.8594ZM158.935 25.3281C159.185 25.3281 159.492 25.3802 159.857 25.4844C160.221 25.5781 160.477 25.6302 160.622 25.6406C160.966 25.6927 161.32 25.4896 161.685 25.0312C162.05 24.5625 162.232 24.1875 162.232 23.9062C162.232 23.6667 162.149 23.375 161.982 23.0312C161.794 22.7188 161.622 22.526 161.466 22.4531C161.279 22.4531 160.893 22.5365 160.31 22.7031C159.175 22.7031 158.607 22.1094 158.607 20.9219C158.638 20.5156 158.971 19.7031 159.607 18.4844C160.326 17.1094 160.961 16.4219 161.513 16.4219C162.18 16.4219 162.867 16.8542 163.576 17.7188C164.274 18.5938 164.622 19.5677 164.622 20.6406C164.622 21.1615 164.513 21.7865 164.294 22.5156C164.096 23.3177 163.779 24.0521 163.341 24.7188C162.852 25.5312 162.341 26.25 161.81 26.875C161.154 27.8333 160.591 28.3125 160.122 28.3125C159.935 28.3021 159.747 28.2604 159.56 28.1875C159.372 28.125 159.164 28.0625 158.935 28C158.883 27.9271 158.831 27.7812 158.779 27.5625C158.727 27.3438 158.69 27.1042 158.669 26.8438C158.638 26.5729 158.643 26.3021 158.685 26.0312C158.716 25.7604 158.8 25.526 158.935 25.3281ZM164.169 5.71875C164.253 6.02083 164.247 6.33333 164.154 6.65625C164.07 6.97917 163.909 7.31771 163.669 7.67188C163.524 7.91146 163.367 8.13021 163.201 8.32812C163.044 8.51562 162.878 8.69792 162.701 8.875C162.649 8.9375 162.565 9.01562 162.451 9.10938C162.336 9.20312 162.216 9.29167 162.091 9.375C161.966 9.45833 161.846 9.52083 161.732 9.5625C161.617 9.59375 161.534 9.57812 161.482 9.51562C161.107 9.21354 160.737 8.90625 160.372 8.59375C160.008 8.28125 159.607 7.98958 159.169 7.71875C159.096 7.66667 159.06 7.61979 159.06 7.57812C159.07 7.52604 159.102 7.45312 159.154 7.35938L161.654 3.54688C161.727 3.44271 161.8 3.39583 161.872 3.40625C161.945 3.40625 162.024 3.43229 162.107 3.48438C162.326 3.60938 162.544 3.75 162.763 3.90625C162.982 4.0625 163.185 4.23438 163.372 4.42188C163.56 4.59896 163.721 4.79688 163.857 5.01562C164.003 5.22396 164.107 5.45833 164.169 5.71875ZM176.561 35.1719C176.561 35.849 176.436 36.6042 176.186 37.4375C175.946 38.2708 175.623 39.026 175.217 39.7031C174.592 40.776 173.951 41.5938 173.295 42.1562C172.649 42.7188 171.92 43 171.107 43C169.837 43 169.201 42.2969 169.201 40.8906C169.201 40.4115 169.3 39.8906 169.498 39.3281C169.696 38.7656 169.956 38.2344 170.279 37.7344C170.602 37.2344 170.878 36.8125 171.107 36.4688C170.878 36.4062 170.738 36.3698 170.686 36.3594C170.634 36.3385 170.592 36.3281 170.561 36.3281C170.529 36.2031 171.206 34.8125 172.592 32.1562C172.8 31.7604 172.972 31.5625 173.107 31.5625C173.274 31.5625 173.535 31.6615 173.889 31.8594C174.243 32.0573 174.623 32.3125 175.029 32.625C175.436 32.9375 175.774 33.2865 176.045 33.6719C176.316 34.0573 176.488 34.5573 176.561 35.1719ZM174.342 38.8125C174.342 38.3333 174.154 37.9375 173.779 37.625C173.592 37.4583 173.326 37.276 172.982 37.0781C172.639 36.8802 172.352 36.7656 172.123 36.7344C171.956 36.7344 171.66 37.0312 171.232 37.625C170.816 38.2188 170.607 38.7135 170.607 39.1094C170.607 39.8802 171.113 40.2656 172.123 40.2656C172.581 40.2656 173.066 40.1198 173.576 39.8281C174.087 39.526 174.342 39.1875 174.342 38.8125ZM181.053 41.3594C180.293 42.3177 179.475 42.9219 178.6 43.1719C177.652 43.401 176.626 43.6094 175.522 43.7969C175.314 43.8073 175.157 43.7865 175.053 43.7344C174.939 43.6927 175.038 43.5625 175.35 43.3438C176.621 42.5938 177.767 41.8542 178.788 41.125C179.819 40.3854 180.663 39.6042 181.319 38.7812C181.975 37.9479 182.579 36.9688 183.131 35.8438C183.683 34.7188 184.183 33.6667 184.631 32.6875C184.746 32.4792 184.876 32.4062 185.022 32.4688C185.168 32.5208 185.178 32.7083 185.053 33.0312C184.636 34.0208 184.407 34.8229 184.366 35.4375V35.4844C184.272 35.7656 184.209 35.9427 184.178 36.0156C183.803 36.8594 183.413 37.6562 183.006 38.4062C182.131 39.875 181.48 40.8594 181.053 41.3594ZM193.764 16.4688C194.421 15.9688 195.072 15.5156 195.717 15.1094C196.363 14.7031 197.014 14.2812 197.671 13.8438C206.764 7.70833 212.03 4.07812 213.467 2.95312C215.103 1.68229 215.957 1 216.03 0.90625C216.363 0.6875 216.431 0.817708 216.233 1.29688C216.046 1.76562 215.275 2.83333 213.921 4.5C211.566 6.625 208.577 8.90104 204.952 11.3281C201.327 13.7448 197.566 16.1042 193.671 18.4062C193.41 18.5833 193.155 18.75 192.905 18.9062C192.665 19.0521 192.431 19.1875 192.202 19.3125C191.681 19.625 191.426 19.6458 191.436 19.375C191.436 19.2604 191.785 18.7344 192.483 17.7969C192.921 17.2448 193.348 16.8021 193.764 16.4688ZM191.046 28.2656L190.811 31.6094C190.78 32.224 190.749 32.7865 190.717 33.2969C190.686 33.7969 190.66 34.2344 190.639 34.6094C190.598 35.3906 190.483 35.7812 190.296 35.7812C190.171 35.7812 189.988 36.0781 189.749 36.6719C189.645 36.974 189.546 37.2396 189.452 37.4688C189.358 37.7083 189.285 37.8958 189.233 38.0312C188.535 39.7708 187.941 40.9115 187.452 41.4531C186.754 42.2552 185.957 42.6562 185.061 42.6562C184.499 42.6562 183.994 42.5052 183.546 42.2031C183.077 41.9427 182.738 41.6302 182.53 41.2656C182.28 40.8594 182.119 40.5 182.046 40.1875C181.9 39.8125 181.78 39.625 181.686 39.625C182.051 37.7708 182.842 36.3177 184.061 35.2656C184.165 35.849 184.379 36.3958 184.702 36.9062C185.035 37.4062 185.619 37.6562 186.452 37.6562C187.014 37.6458 187.431 37.5781 187.702 37.4531C187.973 37.3281 188.238 37.0885 188.499 36.7344C188.77 36.3698 188.957 35.9531 189.061 35.4844C189.165 35.0156 189.176 34.3542 189.092 33.5C189.02 32.6458 188.994 31.8333 189.014 31.0625C189.035 30.2917 189.108 29.2917 189.233 28.0625C189.358 26.8333 189.556 25.7031 189.827 24.6719L191.217 19.9844C191.29 19.849 191.363 19.8125 191.436 19.875C191.509 19.9271 191.525 20.1042 191.483 20.4062C191.483 20.5 191.41 21.5 191.264 23.4062C191.119 25.3021 191.046 26.9219 191.046 28.2656ZM203.476 27.5C203.611 27.6146 203.746 27.6562 203.882 27.625C204.017 27.5833 204.127 27.5365 204.21 27.4844C204.345 27.8177 204.403 28.1458 204.382 28.4688C204.371 28.7917 204.314 29.1198 204.21 29.4531C204.002 29.6302 203.788 29.7708 203.569 29.875C203.351 29.9792 203.106 30.0885 202.835 30.2031C202.606 30.3698 202.398 30.5417 202.21 30.7188C202.023 30.8854 201.799 31.0573 201.538 31.2344C201.33 31.3802 201.142 31.4635 200.976 31.4844C200.809 31.4948 200.653 31.5417 200.507 31.625C200.361 31.6875 200.127 31.875 199.804 32.1875C199.564 32.4062 199.293 32.5729 198.991 32.6875C198.7 32.7917 198.403 32.8125 198.101 32.75C197.851 32.6979 197.621 32.6979 197.413 32.75C197.205 32.8021 197.012 32.8854 196.835 33C196.658 33.1042 196.496 33.2344 196.351 33.3906C196.215 33.5365 196.101 33.6875 196.007 33.8438C195.778 34.2188 195.517 34.5938 195.226 34.9688C194.934 35.3438 194.616 35.6823 194.273 35.9844C193.929 36.2865 193.559 36.5365 193.163 36.7344C192.767 36.9219 192.345 37.0156 191.898 37.0156C191.314 36.9948 190.825 36.8333 190.429 36.5312C190.023 36.2188 189.694 35.8229 189.444 35.3438C189.194 34.8646 189.012 34.3281 188.898 33.7344C188.783 33.1302 188.726 32.526 188.726 31.9219C188.84 31.5156 188.97 31.1042 189.116 30.6875C189.252 30.2604 189.403 29.8698 189.569 29.5156C189.736 29.1615 189.918 28.8646 190.116 28.625C190.304 28.375 190.512 28.224 190.741 28.1719C190.731 28.8594 190.788 29.4479 190.913 29.9375C191.049 30.4167 191.257 30.8073 191.538 31.1094C191.819 31.4115 192.174 31.6354 192.601 31.7812C193.028 31.9167 193.533 31.9844 194.116 31.9844C194.481 31.9844 194.804 31.9375 195.085 31.8438C195.366 31.75 195.627 31.625 195.866 31.4688C196.116 31.3125 196.351 31.1354 196.569 30.9375C196.799 30.7396 197.038 30.5417 197.288 30.3438C197.486 30.1771 197.736 30.0677 198.038 30.0156C198.351 29.9531 198.611 29.9792 198.819 30.0938C198.903 30.1354 199.007 30.1719 199.132 30.2031C199.267 30.2344 199.424 30.2292 199.601 30.1875C199.913 30.0833 200.168 29.9323 200.366 29.7344C200.575 29.526 200.783 29.2448 200.991 28.8906C201.095 28.7344 201.194 28.7083 201.288 28.8125C201.319 28.8646 201.366 28.9062 201.429 28.9375C201.502 28.9688 201.564 28.9844 201.616 28.9844C201.918 28.9844 202.194 28.8802 202.444 28.6719C202.705 28.4635 202.95 28.1094 203.179 27.6094C203.22 27.5156 203.257 27.4635 203.288 27.4531C203.33 27.4323 203.392 27.4479 203.476 27.5ZM203.804 12.9844C203.887 13.276 203.882 13.5781 203.788 13.8906C203.705 14.2031 203.554 14.526 203.335 14.8594C203.158 15.1302 202.976 15.3854 202.788 15.625C202.611 15.8542 202.413 16.0729 202.194 16.2812C202.059 16.4271 201.939 16.5312 201.835 16.5938C201.731 16.6562 201.642 16.6979 201.569 16.7188C201.496 16.7292 201.434 16.724 201.382 16.7031C201.33 16.6823 201.283 16.6562 201.241 16.625C200.877 16.3333 200.517 16.0417 200.163 15.75C199.819 15.4479 199.439 15.1667 199.023 14.9062C198.97 14.8333 198.944 14.7812 198.944 14.75C198.944 14.7083 198.97 14.6458 199.023 14.5625L201.398 10.9062C201.47 10.8125 201.538 10.7708 201.601 10.7812C201.674 10.7812 201.752 10.8073 201.835 10.8594C202.043 10.9844 202.252 11.1198 202.46 11.2656C202.679 11.401 202.877 11.5573 203.054 11.7344C203.231 11.9115 203.387 12.1042 203.523 12.3125C203.658 12.5104 203.752 12.7344 203.804 12.9844ZM201.648 7.34375C201.731 7.63542 201.726 7.9375 201.632 8.25C201.549 8.5625 201.398 8.88542 201.179 9.21875C201.002 9.48958 200.819 9.74479 200.632 9.98438C200.455 10.2135 200.257 10.4323 200.038 10.6406C199.903 10.7865 199.783 10.8906 199.679 10.9531C199.575 11.0156 199.486 11.0573 199.413 11.0781C199.34 11.0885 199.278 11.0833 199.226 11.0625C199.174 11.0417 199.127 11.0156 199.085 10.9844C198.72 10.6927 198.361 10.401 198.007 10.1094C197.663 9.80729 197.283 9.52604 196.866 9.26562C196.814 9.19271 196.788 9.14062 196.788 9.10938C196.788 9.06771 196.814 9.00521 196.866 8.92188L199.241 5.26562C199.314 5.17188 199.382 5.13021 199.444 5.14062C199.517 5.14062 199.595 5.16667 199.679 5.21875C199.887 5.34375 200.095 5.47917 200.304 5.625C200.523 5.76042 200.72 5.91667 200.898 6.09375C201.075 6.27083 201.231 6.46354 201.366 6.67188C201.502 6.86979 201.595 7.09375 201.648 7.34375ZM198.866 12.8594C198.887 12.9115 198.903 12.9583 198.913 13C198.934 13.0417 198.955 13.0885 198.976 13.1406L199.023 13.2812C199.023 13.3229 199.028 13.3542 199.038 13.375C199.038 13.3958 199.038 13.4167 199.038 13.4375C199.049 13.4583 199.054 13.4792 199.054 13.5C199.054 13.5208 199.054 13.5365 199.054 13.5469C199.064 13.5573 199.069 13.5729 199.069 13.5938C199.069 13.7917 199.049 13.974 199.007 14.1406C199.007 14.1615 199.002 14.1771 198.991 14.1875C198.991 14.1979 198.991 14.2135 198.991 14.2344L198.929 14.4219L198.882 14.5156C198.871 14.5365 198.861 14.5625 198.851 14.5938C198.851 14.625 198.84 14.651 198.819 14.6719L198.726 14.8594L198.538 15.1562L198.273 15.5469C198.22 15.6302 198.163 15.7135 198.101 15.7969C198.038 15.8698 197.976 15.9479 197.913 16.0312C197.83 16.125 197.746 16.2188 197.663 16.3125C197.58 16.4062 197.491 16.4948 197.398 16.5781L197.241 16.7344L197.163 16.7969C197.038 16.901 196.929 16.9688 196.835 17C196.752 17.0312 196.679 17.0365 196.616 17.0156C196.575 17.0052 196.538 16.9948 196.507 16.9844C196.486 16.9635 196.465 16.9427 196.444 16.9219L196.069 16.625L195.913 16.4844L194.991 15.7344L194.882 15.6562C194.663 15.4896 194.45 15.3385 194.241 15.2031C194.179 15.151 194.148 15.1042 194.148 15.0625C194.148 15.0104 194.174 14.9427 194.226 14.8594L196.616 11.2188C196.689 11.1042 196.773 11.0573 196.866 11.0781C196.866 11.0781 196.877 11.0833 196.898 11.0938C196.908 11.0938 196.934 11.1042 196.976 11.125C196.996 11.1458 197.017 11.1562 197.038 11.1562C197.174 11.2396 197.309 11.3281 197.444 11.4219C197.58 11.5052 197.715 11.5938 197.851 11.6875L198.023 11.8281C198.137 11.9219 198.241 12.0156 198.335 12.1094C198.429 12.2031 198.517 12.3073 198.601 12.4219L198.694 12.5469L198.835 12.7969C198.856 12.8385 198.866 12.8594 198.866 12.8594ZM203.89 30C203.765 29.6667 203.687 29.3385 203.656 29.0156C203.624 28.6927 203.702 28.3646 203.89 28.0312C204.005 27.9375 204.13 27.8229 204.265 27.6875C204.4 27.5417 204.531 27.3958 204.656 27.25C204.781 27.1042 204.89 26.9583 204.984 26.8125C205.077 26.6667 205.135 26.5417 205.156 26.4375C205.187 26.2708 205.197 26.0885 205.187 25.8906C205.187 25.6823 205.182 25.474 205.171 25.2656C205.171 25.0573 205.171 24.8542 205.171 24.6562C205.182 24.4583 205.218 24.2812 205.281 24.125C205.333 23.9688 205.432 23.7448 205.577 23.4531L207.171 20.2031C207.223 20.0885 207.281 20.0625 207.343 20.125C207.416 20.1875 207.452 20.276 207.452 20.3906C207.38 20.7344 207.338 21.0938 207.327 21.4688C207.317 21.8333 207.307 22.2031 207.296 22.5781C207.296 22.9427 207.286 23.3073 207.265 23.6719C207.244 24.0365 207.192 24.3906 207.109 24.7344C207.025 25.1927 206.874 25.6771 206.656 26.1875C206.437 26.6875 206.176 27.1771 205.874 27.6562C205.583 28.125 205.265 28.5625 204.921 28.9688C204.588 29.375 204.265 29.7031 203.952 29.9531L203.89 30ZM208.827 10.0469C208.911 10.349 208.906 10.6615 208.812 10.9844C208.729 11.3073 208.567 11.6458 208.327 12C208.182 12.2396 208.025 12.4583 207.859 12.6562C207.702 12.8438 207.536 13.026 207.359 13.2031C207.307 13.2656 207.223 13.3438 207.109 13.4375C206.994 13.5312 206.874 13.6198 206.749 13.7031C206.624 13.7865 206.505 13.849 206.39 13.8906C206.275 13.9219 206.192 13.9062 206.14 13.8438C205.765 13.5417 205.395 13.2344 205.031 12.9219C204.666 12.6094 204.265 12.3177 203.827 12.0469C203.755 11.9948 203.723 11.9479 203.734 11.9062C203.734 11.8542 203.76 11.7812 203.812 11.6875L206.312 7.875C206.385 7.77083 206.458 7.72396 206.531 7.73438C206.604 7.73438 206.682 7.76042 206.765 7.8125C206.984 7.9375 207.202 8.07812 207.421 8.23438C207.64 8.39062 207.843 8.5625 208.031 8.75C208.218 8.92708 208.38 9.125 208.515 9.34375C208.661 9.55208 208.765 9.78646 208.827 10.0469ZM212.273 27.3125L213.898 23.4844C214.034 23.1719 214.143 23.0156 214.226 23.0156C214.362 23.0156 214.403 23.1146 214.351 23.3125C214.289 23.5312 214.216 23.9115 214.133 24.4531C214.049 24.9844 213.987 25.401 213.945 25.7031C213.883 26.2344 213.82 26.8333 213.758 27.5C213.695 28.1667 213.638 28.8542 213.586 29.5625C213.534 30.2604 213.481 30.9427 213.429 31.6094C213.377 32.276 213.32 32.875 213.258 33.4062C213.091 35.0208 212.836 36.3542 212.492 37.4062C212.148 38.4479 211.747 39.4167 211.289 40.3125C210.83 41.1979 210.461 41.6615 210.179 41.7031C210.106 41.7031 210.127 41.5156 210.242 41.1406C210.377 40.7865 210.502 40.3438 210.617 39.8125C210.742 39.2812 210.851 38.7135 210.945 38.1094C211.039 37.4948 211.122 36.8698 211.195 36.2344C211.268 35.5885 211.33 34.9792 211.383 34.4062C211.455 33.8646 211.518 33.0573 211.57 31.9844C211.622 30.901 211.7 29.9844 211.804 29.2344C211.909 28.4844 212.065 27.8438 212.273 27.3125ZM215.844 42.5156C216.115 42.3073 216.438 42.0573 216.812 41.7656C217.812 41.026 218.646 40.2969 219.312 39.5781C219.99 38.8594 220.349 38.3125 220.391 37.9375C220.474 37.4896 220.224 36.9167 219.641 36.2188C219.057 35.5312 218.365 34.8958 217.562 34.3125C217.5 34.2604 217.464 34.2135 217.453 34.1719C217.453 34.1302 217.464 34.0885 217.484 34.0469L218.219 32.3594L219.25 30.0469C219.333 29.8594 219.406 29.7083 219.469 29.5938C219.542 29.4688 219.625 29.4375 219.719 29.5C220.156 29.8646 220.589 30.2604 221.016 30.6875C221.453 31.1042 221.828 31.5885 222.141 32.1406C222.453 32.6823 222.609 33.3906 222.609 34.2656C222.609 35.2865 222.443 36.2708 222.109 37.2188C221.786 38.1562 221.344 39.1302 220.781 40.1406C220.573 40.5052 220.339 40.8385 220.078 41.1406C219.828 41.4323 219.469 41.6875 219 41.9062C218.542 42.125 217.547 42.474 216.016 42.9531C215.828 43.0052 215.698 43.0052 215.625 42.9531C215.604 42.9323 215.604 42.8854 215.625 42.8125C215.646 42.7292 215.719 42.6302 215.844 42.5156Z" fill="white"/>
</svg>
